<svg id="Layer_1" data-name="Layer 1" xmlns="http://www.w3.org/2000/svg" xmlns:xlink="http://www.w3.org/1999/xlink" viewBox="0 0 268.09 92.4"><defs><style>.cls-1,.cls-2{fill:#fff;}.cls-2{fill-rule:evenodd;}.cls-3{fill:#6fa86f;}.cls-4{fill:#26343b;}.cls-5{mask:url(#mask);}.cls-6{mask:url(#mask-2-2);}</style><mask id="mask" x="114.04" y="26.2" width="40" height="40" maskUnits="userSpaceOnUse"><g id="mask-2"><circle id="path-1" class="cls-1" cx="134.04" cy="46.2" r="20"/></g></mask><mask id="mask-2-2" x="110.04" y="28.2" width="49" height="36" maskUnits="userSpaceOnUse"><g id="mask-4"><polygon id="path-3" class="cls-2" points="110.04 28.2 159.04 28.2 159.04 64.2 110.04 64.2 110.04 28.2"/></g></mask></defs><title>elevate</title><rect class="cls-3" width="268.09" height="92.4"/><g id="map-pin"><g id="Group-3"><g id="Mask-3" data-name="Mask"><circle class="cls-4" cx="134.04" cy="46.2" r="20"/></g><g class="cls-5"><g class="cls-6"><path id="Fill-1" class="cls-2" d="M128.18,46.89a10.82,10.82,0,0,1,5.1-5.11,12.33,12.33,0,0,1,7.4-1.49l.36.05L128,47.2ZM149,37.25l-.44-.3a18.26,18.26,0,0,0-9.69-2.75,19,19,0,0,0-9.43,2.58A17.74,17.74,0,0,0,120,51.37a1.88,1.88,0,0,1-1,1.52l-3,1.71v2.6l7.62-4.31a5.64,5.64,0,0,1,4.11-.56c2.07.49,5.43.58,9.71-1.85a13.26,13.26,0,0,0,6.2-6.95l-1.8,1a18.89,18.89,0,0,0-3.27,2.37,13.85,13.85,0,0,1-2.28,1.61,11.32,11.32,0,0,1-7.53,1.7l-.34-.06,15.81-9,0-1.32-.58-.33c-.22-.13-5.45-3-12.19.83A13,13,0,0,0,125,48.31a3.42,3.42,0,0,1-1.63,2.12l-1.05.6,0-.25a15.7,15.7,0,0,1,8.19-12.05,16.32,16.32,0,0,1,16.12-.25l.06,0v.07a15.66,15.66,0,0,1-8.28,13.56,16.37,16.37,0,0,1-11.27,2.25,5.68,5.68,0,0,0-3.81.63l-.56.32c3,1.47,9.1,3.11,16.79-1.24A17.75,17.75,0,0,0,149,37.78Z"/></g></g></g></g></svg>