<svg id="Layer_1" data-name="Layer 1" xmlns="http://www.w3.org/2000/svg" xmlns:xlink="http://www.w3.org/1999/xlink" viewBox="0 0 363.7 95.34"><defs><style>.cls-1{fill:#fff;fill-rule:evenodd;}.cls-2{fill:#e87722;}.cls-3{mask:url(#mask);}</style><mask id="mask" x="130.35" y="33.88" width="103.43" height="27.12" maskUnits="userSpaceOnUse"><g id="mask-2"><polygon id="path-1" class="cls-1" points="130.35 60.99 233.78 60.99 233.78 33.88 130.35 33.88 130.35 60.99"/></g></mask></defs><title>enable</title><rect class="cls-2" width="363.7" height="95.34"/><g id="Symbols"><g id="Group-34"><polygon id="Fill-1" class="cls-1" points="154.85 40.04 164.64 40.04 164.64 41.87 156.99 41.87 156.99 44.41 163.58 44.41 163.58 46.24 156.99 46.24 156.99 49.13 164.82 49.13 164.82 50.96 154.85 50.96 154.85 40.04"/><polygon id="Fill-2" class="cls-1" points="166.34 40.04 168.59 40.04 175.89 47.92 175.89 40.04 177.94 40.04 177.94 50.96 175.98 50.96 168.38 42.79 168.38 50.96 166.34 50.96 166.34 40.04"/><path id="Fill-3" class="cls-1" d="M184.93,40h1.62L192.15,51h-1.48l-1.41-2.84h-7L180.79,51h-1.47ZM188.67,47l-2.93-5.87L182.81,47Z"/><g id="Group-33"><path id="Fill-4" class="cls-1" d="M193.53,40h6.32l.75,0a7.22,7.22,0,0,1,.9.09,5.3,5.3,0,0,1,.93.24,2.94,2.94,0,0,1,.84.49,2.36,2.36,0,0,1,.59.81,2.89,2.89,0,0,1,.23,1.2,2.43,2.43,0,0,1-.17,1,2.27,2.27,0,0,1-.41.64,2.63,2.63,0,0,1-.54.42l-.55.28.59.29a3,3,0,0,1,.68.48,2.77,2.77,0,0,1,.55.79,2.61,2.61,0,0,1,.22,1.14,2.9,2.9,0,0,1-.24,1.25,2.42,2.42,0,0,1-.65.86,2.75,2.75,0,0,1-.93.53,6.67,6.67,0,0,1-1.13.28,8,8,0,0,1-1.21.12l-1.18,0h-5.59Zm1.32,4.66h4.64a11.41,11.41,0,0,0,1.16-.06,3.83,3.83,0,0,0,1.06-.26,1.87,1.87,0,0,0,.76-.55,1.35,1.35,0,0,0,.29-.92,1.54,1.54,0,0,0-.3-1,1.77,1.77,0,0,0-.83-.52,4.54,4.54,0,0,0-1.18-.2q-.67,0-1.41,0h-4.19Zm0,5.09H200a11.14,11.14,0,0,0,1.17-.07,3.27,3.27,0,0,0,1-.28,1.84,1.84,0,0,0,.71-.58,1.7,1.7,0,0,0,.27-1,1.89,1.89,0,0,0-.22-1,1.67,1.67,0,0,0-.61-.63,2.77,2.77,0,0,0-.93-.35,6.66,6.66,0,0,0-1.23-.1h-5.27Z"/><polygon id="Fill-6" class="cls-1" points="206.19 40.04 207.51 40.04 207.51 49.79 216.13 49.79 216.13 50.96 206.19 50.96 206.19 40.04"/><polygon id="Fill-8" class="cls-1" points="154.85 60.23 154.85 56.41 155.88 56.41 156.62 59.08 156.63 59.08 157.37 56.41 158.41 56.41 158.41 60.23 157.77 60.23 157.77 57.23 157.76 57.23 156.9 60.23 156.35 60.23 155.5 57.23 155.49 57.23 155.49 60.23 154.85 60.23"/><g class="cls-3"><polygon id="Fill-10" class="cls-1" points="159.44 60.23 160.17 60.23 160.17 56.41 159.44 56.41 159.44 60.23"/></g><g class="cls-3"><path id="Fill-12" class="cls-1" d="M161.21,56.41h1.26c1,0,1.71.56,1.72,1.91s-.71,1.91-1.72,1.91h-1.26Zm.73,3.21h.49c.83,0,1-.61,1-1.3s-.2-1.29-1-1.29h-.49Z"/></g><g class="cls-3"><path id="Fill-13" class="cls-1" d="M166.72,57.43a.7.7,0,0,0-.68-.5c-.32,0-.55.13-.55.42,0,.66,2,.52,2,1.76,0,.79-.49,1.18-1.34,1.18a1.52,1.52,0,0,1-1.43-.91l.61-.26a.86.86,0,0,0,.83.59c.36,0,.64-.13.64-.5,0-.75-2-.61-2-1.78A1.11,1.11,0,0,1,166,56.36a1.4,1.4,0,0,1,1.35.86Z"/></g><g class="cls-3"><polygon id="Fill-14" class="cls-1" points="170.73 56.41 170.73 57.02 169.73 57.02 169.73 60.23 169 60.23 169 57.02 168 57.02 168 56.41 170.73 56.41"/></g><g class="cls-3"><path id="Fill-15" class="cls-1" d="M171.42,60.23V56.41h1.52a1.07,1.07,0,0,1,1.22,1.14.93.93,0,0,1-.7,1l.84,1.7h-.81l-.72-1.55h-.62v1.55Zm.73-2.14h.53c.58,0,.75-.18.75-.54s-.22-.54-.62-.54h-.66Z"/></g><g class="cls-3"><polygon id="Fill-16" class="cls-1" points="175.08 60.23 175.08 56.41 177.61 56.41 177.61 57.03 175.81 57.03 175.81 57.94 177.12 57.94 177.12 58.55 175.81 58.55 175.81 59.62 177.67 59.62 177.67 60.23 175.08 60.23"/></g><g class="cls-3"><path id="Fill-17" class="cls-1" d="M179.33,56.41h.91l1.08,3.82h-.72l-.21-.82h-1.21l-.23.82h-.72Zm0,2.4h.89l-.43-1.67h0Z"/></g><g class="cls-3"><polygon id="Fill-18" class="cls-1" points="182 60.23 182 56.41 183.02 56.41 183.76 59.08 183.77 59.08 184.51 56.41 185.55 56.41 185.55 60.23 184.91 60.23 184.91 57.23 184.9 57.23 184.04 60.23 183.49 60.23 182.64 57.23 182.63 57.23 182.63 60.23 182 60.23"/></g><g class="cls-3"><path id="Fill-19" class="cls-1" d="M188.48,60.23V56.41h1.4c.82,0,1.35.35,1.35,1.14s-.53,1.14-1.35,1.14h-.67v1.54Zm.73-2.13h.58c.55,0,.71-.21.71-.55s-.16-.54-.71-.54h-.58Z"/></g><g class="cls-3"><path id="Fill-20" class="cls-1" d="M192.51,56.41h.91l1.08,3.82h-.72l-.21-.82h-1.21l-.23.82h-.72Zm0,2.4h.89L193,57.14h0Z"/></g><g class="cls-3"><path id="Fill-21" class="cls-1" d="M195.18,60.23V56.41h1.52a1.07,1.07,0,0,1,1.22,1.14.93.93,0,0,1-.7,1l.84,1.7h-.81l-.72-1.55h-.62v1.55Zm.73-2.14h.54c.57,0,.74-.18.74-.54S197,57,196.57,57h-.66Z"/></g><g class="cls-3"><polygon id="Fill-22" class="cls-1" points="201.27 56.41 201.27 57.02 200.27 57.02 200.27 60.23 199.54 60.23 199.54 57.02 198.54 57.02 198.54 56.41 201.27 56.41"/></g><g class="cls-3"><polygon id="Fill-23" class="cls-1" points="201.95 60.23 201.95 56.41 202.72 56.41 204.22 59.02 204.23 59.02 204.23 56.41 204.92 56.41 204.92 60.23 204.21 60.23 202.65 57.52 202.64 57.52 202.64 60.23 201.95 60.23"/></g><g class="cls-3"><polygon id="Fill-24" class="cls-1" points="205.96 60.23 205.96 56.41 208.48 56.41 208.48 57.03 206.68 57.03 206.68 57.94 207.99 57.94 207.99 58.55 206.68 58.55 206.68 59.62 208.54 59.62 208.54 60.23 205.96 60.23"/></g><g class="cls-3"><path id="Fill-25" class="cls-1" d="M209.27,60.23V56.41h1.53A1.08,1.08,0,0,1,212,57.55a.94.94,0,0,1-.7,1l.84,1.7h-.81l-.72-1.55H210v1.55Zm.73-2.14h.54c.57,0,.75-.18.75-.54s-.22-.54-.62-.54H210Z"/></g><g class="cls-3"><path id="Fill-26" class="cls-1" d="M214.69,57.43a.69.69,0,0,0-.68-.5c-.32,0-.54.13-.54.42,0,.66,2,.52,2,1.76,0,.79-.49,1.18-1.33,1.18a1.5,1.5,0,0,1-1.43-.91l.6-.26a.87.87,0,0,0,.83.59c.37,0,.65-.13.65-.5,0-.75-2-.61-2-1.78A1.11,1.11,0,0,1,214,56.36a1.39,1.39,0,0,1,1.35.86Z"/></g><g class="cls-3"><polygon id="Fill-27" class="cls-1" points="217.37 40.05 227.1 40.05 227.1 41.22 218.69 41.22 218.69 44.7 225.72 44.7 225.72 45.88 218.69 45.88 218.69 49.79 227.28 49.79 227.28 50.97 217.37 50.97 217.37 40.05"/></g><g class="cls-3"><polygon id="Fill-28" class="cls-1" points="231.02 40.04 231.02 40.33 230.54 40.33 230.54 41.86 230.19 41.86 230.19 40.33 229.72 40.33 229.72 40.04 231.02 40.04"/></g><g class="cls-3"><polygon id="Fill-29" class="cls-1" points="231.38 41.86 231.38 40.04 231.87 40.04 232.22 41.31 232.22 41.31 232.58 40.04 233.07 40.04 233.07 41.86 232.77 41.86 232.77 40.43 232.76 40.43 232.36 41.86 232.09 41.86 231.69 40.43 231.68 40.43 231.68 41.86 231.38 41.86"/></g><g class="cls-3"><polygon id="Fill-30" class="cls-1" points="149.4 40.04 139.94 34.59 138.06 35.67 148.09 41.47 146.46 42.41 136.43 36.61 134.56 37.69 144.59 43.49 142.96 44.43 132.93 38.63 131.06 39.72 141.09 45.51 131.07 51.29 132.94 52.37 149.4 42.87 149.4 40.04"/></g><g class="cls-3"><polygon id="Fill-31" class="cls-1" points="149.4 48.15 149.15 48 147.28 49.08 148.09 49.55 138.07 55.34 139.94 56.41 149.4 50.96 149.4 48.15"/></g><g class="cls-3"><polygon id="Fill-32" class="cls-1" points="149.15 43.96 147.28 45.04 148.09 45.51 146.46 46.45 145.65 45.98 143.78 47.06 144.59 47.53 134.58 53.31 136.44 54.4 149.4 46.91 149.4 44.1 149.15 43.96"/></g></g></g></g></svg>