<svg id="Layer_1" data-name="Layer 1" xmlns="http://www.w3.org/2000/svg" viewBox="0 0 1841.54 667.8"><defs><style>.cls-1{fill:#0c3c57;}.cls-2{fill:#fff;}</style></defs><title>lagoon</title><rect class="cls-1" width="1841.54" height="667.8"/><path class="cls-2" d="M529.62,142.44l52.29,61.48-.65.71H551.2v-6c-.06-3.59-1.41-5-4.9-5H530c-.05,1.27-.14,2.31-.14,3.35,0,16.84.06,33.68-.07,50.52,0,2.75.85,3.49,3.47,3.37,4.27-.2,8.56,0,12.84-.07,3.67-.06,5.07-1.52,5.12-5.2v-6.67h20.15c1.19-5.31,1.6-5.64,6.92-5.64H593v57.19c-6,0-11.89.24-17.76-.1-3.23-.19-3.59-3.09-3.47-6.07H518v-8.68c0-2.37-1-4.19-3.43-4.28-5.8-.19-11.62-.06-17.53-.06v56.93c6,0,11.79.09,17.6-.05,2.14-.06,3.25-1.64,3.34-3.75.08-1.91,0-3.84,0-6h90.66c1.81-5.69,1.81-5.69,7.79-5.7h13.9V370h-15c-4.59,0-5.43-.68-6.36-5.39H484.69v-8.72c0-2.79-1.45-4.29-4.1-4.34-5.53-.12-11.07,0-16.86,0v57.19c5.75,0,11.47.12,17.18-.06a3.75,3.75,0,0,0,3.77-4c.06-1.83,0-3.66,0-5.86H635.82c.11-1.28-.12-2.45.35-3.15.84-1.25,2-3.11,3.19-3.17,5.89-.32,11.81-.14,17.88-.14v57c-6,0-11.92.17-17.81-.07-2.73-.12-3.39-2.53-3.59-5.25H527.25c0-2.57,0-4.78,0-7-.09-3.67-1.51-5.07-5.21-5.1H505.9v3.38q0,25.26,0,50.52c0,2.45.46,3.49,3.18,3.35,4.37-.23,8.76,0,13.14-.08,3.5,0,5-1.49,5.08-5,.06-1.84,0-3.68,0-5.85h53.36v-7.2c0-3.6,1.38-5,4.87-5.07,5.34-.05,10.68,0,16.23,0v57.18c-6.05,0-12,.12-17.88-.06-2.16-.06-3.08-1.83-3.2-3.88-.08-1.24,0-2.5,0-3.88-6.12,1.58-11.86,3.41-17.73,4.54-48.53,9.39-92.91.35-131.71-31-24.49-19.83-39.94-45.43-45.61-76.6-3.62-19.89-1.31-39.29,4.73-58.42,8-25.48,20.17-49,33.84-71.84,23.83-39.75,51.75-76.54,81.54-112C513.33,161.08,521.2,152.16,529.62,142.44Z"/><path class="cls-2" d="M1435.08,353.56V264.73h17v120.6c-4.51,0-8.86.1-13.21-.08-.83,0-1.77-1-2.39-1.79q-31-38.4-61.89-76.84l-8.92-11.06v89.6h-17.29V264.59c4.54,0,9.07-.07,13.59.07.65,0,1.36,1,1.89,1.62q34.42,42.74,68.83,85.49c.58.72,1.2,1.41,1.8,2.11Z"/><path class="cls-2" d="M1131.2,263.22c16.22.42,34.61,7.8,47.47,25.85,23.62,33.14,10.19,88.52-41.41,96.81-19,3.06-36.94-.34-52.44-12.25-17.89-13.74-25.06-32.49-23.24-54.65C1064.28,286.13,1091.35,263,1131.2,263.22Zm41.19,62c0-26.82-19.86-46.7-46.67-46.71s-47,19.81-47.1,46.37c0,26.82,19.87,46.55,47.06,46.6,26.77,0,46.71-19.73,46.71-46.3Z"/><path class="cls-2" d="M1203.58,329.18c0-36.33,23-61.86,55-65.42,16.27-1.8,31.68.56,45.62,9.44,16.68,10.63,25.81,26,27.58,45.69,1.75,19.37-3.72,36.39-17.71,50.19-10.66,10.51-23.79,15.91-38.58,17.39-14,1.39-27.44-.61-39.83-7.36C1214.29,367.48,1204.19,349,1203.58,329.18Zm64.31,42.26c26.83,0,47-19.91,46.93-46.49s-20-46.29-46.75-46.47-47.3,20.06-47.3,46.6S1240.92,371.38,1267.89,371.44Z"/><path class="cls-2" d="M1042.89,281.55l-10.79,10.77a50.2,50.2,0,0,0-18.89-11.42c-21-6.79-45,.67-56.38,17.88-17.35,26.28-5.38,66.58,32.4,72a53.67,53.67,0,0,0,33.39-5.46,4.55,4.55,0,0,0,2.85-4.76c-.21-5.44-.07-10.89-.07-16.34v-3.39c-7.27,0-14.16-.06-21.06.05a3.77,3.77,0,0,1-4-2.4c-2.26-4.6-4.8-9.07-7.4-13.93h49.11v44.5a4.55,4.55,0,0,1-2.07,4.1c-9.9,7.43-21.14,11.45-33.3,13-15.23,1.93-29.95.12-43.53-7.39-19-10.5-29.35-26.81-31-48.38-1.69-21.73,5.33-40.11,22.72-53.74,14.52-11.38,31.45-14.76,49.52-13.12C1019.3,264.91,1032.41,270.35,1042.89,281.55Z"/><path class="cls-2" d="M809.61,385.35c1.72-3.84,3.25-7.28,4.8-10.71Q838.71,321,863,267.36c1-2.27,2.23-3,4.57-2.85,3.79.17,7.6.16,11.39,0,2-.09,2.86.66,3.66,2.43q23.29,51.53,46.74,103c2.28,5,4.57,10,7,15.42-5.92,0-11.45.09-17-.1-.77,0-1.79-1.27-2.2-2.17-3.8-8.41-7.55-16.85-11.16-25.34a3.36,3.36,0,0,0-3.67-2.41q-29.64.12-59.28,0a3.14,3.14,0,0,0-3.43,2.28c-3.67,8.58-7.52,17.07-11.21,25.64a3,3,0,0,1-3.23,2.14C820.16,385.27,815.12,385.35,809.61,385.35Zm63.16-103.06c-8.79,20-17.33,39.36-26,59h52C890.11,321.65,881.58,302.25,872.77,282.29Z"/><path class="cls-2" d="M724.9,385V264.76h17.18V370.44h65.43c-2.51,5.08-4.73,9.66-7.06,14.18a2.31,2.31,0,0,1-1.75.69q-36.65,0-73.3-.07C725.32,385.24,725.24,385.15,724.9,385Z"/><path class="cls-2" d="M777.11,465.73c1.83-5.38,3.68-10.75,5.5-16.14,2.23-6.62,4.58-13.21,6.59-19.9.84-2.79,2.12-4.11,5.09-3.56a21.45,21.45,0,0,0,3,0c-.69,2.1-1.27,3.9-1.87,5.7-4.65,13.9-9.37,27.78-13.9,41.72-.7,2.16-1.81,2.72-3.78,2.48s-4.51,1-5.6-2.46c-3.54-11-7.4-21.89-11.14-32.83-.41-1.19-.84-2.37-1.45-4.1-.48,1.18-.81,1.88-1.06,2.61-3.91,11.39-8,22.74-11.62,34.2-1.09,3.39-3.38,2.38-5.52,2.58s-3.32-.16-4.09-2.51c-4.83-14.87-9.86-29.68-14.82-44.5-.27-.81-.46-1.65-.67-2.43.31-.2.46-.37.62-.38,6.38-.43,6.39-.43,8.41,5.61q5.15,15.48,10.28,31c.3.9.65,1.79,1.27,3.47.91-2.48,1.6-4.28,2.24-6.1,3.66-10.55,7.45-21.06,10.87-31.69,1-3.14,3.12-2.06,5-2.36,2.09-.33,2.8.7,3.4,2.53,4.09,12.34,8.3,24.65,12.47,37Z"/><path class="cls-2" d="M1408.68,441.48v34.38H1402V426.49c5.28-.92,5.27-.91,7.72,3.23q8.48,14.29,17,28.58c.48.82,1,1.6,1.72,2.69l9.6-16.35c2.8-4.78,5.85-9.44,8.3-14.39,1.82-3.68,4.19-5,8.32-3.72v49.25h-6.63v-34.7l-.61-.24c-.55.84-1.14,1.65-1.65,2.51q-7.32,12.27-14.62,24.55c-1.8,3-4.06,3-5.87,0q-7.29-12.11-14.55-24.25c-.48-.79-1-1.54-1.52-2.32Z"/><path class="cls-2" d="M1068,475.88h-6.72v-35l-.58-.16-7.84,13.13c-2.84,4.77-5.66,9.54-8.51,14.29-1.58,2.63-4,2.67-5.53.06q-7.47-12.36-14.89-24.75c-.44-.73-.92-1.44-1.86-2.92v35.25h-6.81V426.61c4.59-1.23,5.4-.93,7.68,2.92,6.16,10.36,12.31,20.72,18.71,31.5.72-1.17,1.27-2,1.77-2.87,5.46-9.31,11.12-18.51,16.27-28,2-3.65,4.33-4.8,8.31-3.71Z"/><path class="cls-2" d="M1105.36,475.83V426.69c.17-.14.31-.37.45-.37,9.13.14,18.36-.54,27.35.64,12.93,1.7,21,12.61,20.22,25.49s-10,22.55-22.89,23.29C1122.26,476.22,1114,475.83,1105.36,475.83Zm7.32-6.31c5.8,0,11.46.43,17-.09,9.5-.88,16-7.79,16.39-16.76.5-10.28-4.62-17.78-14.42-19.55-6.13-1.11-12.52-.83-19-1.19Z"/><path class="cls-2" d="M944,426.73c8.78,0,17.38-.65,25.83.19,8.16.8,13.15,6.31,14.18,13.36,1.26,8.57-1.83,14.51-9.68,18.64a5.6,5.6,0,0,0-.79.67c1.91,2.73,3.79,5.42,5.68,8.1s3.64,5.19,5.55,7.89c-6.3,1.33-7.19,1-10.49-3.7-2.23-3.19-4.38-6.44-6.76-9.51a4.56,4.56,0,0,0-3-1.47c-3.39-.17-6.82.15-10.21-.1-2.82-.2-3.47.9-3.34,3.48.19,3.76,0,7.54,0,11.54h-7ZM951,455c6.11-.29,11.85-.16,17.46-.94,5.44-.76,8.47-4.89,8.58-10.2.11-5.68-2.57-9.57-8.2-10.75a61.79,61.79,0,0,0-11.28-.86c-6.56-.12-6.56,0-6.56,6.52Z"/><path class="cls-2" d="M1249.94,426.33c8.12,0,16-.49,23.83.12,9.08.72,14.56,5.87,16,13.6,1.58,8.48-1.53,14.45-10.43,19.47l11.16,15.89c-4.7,1.65-7.26.88-9.89-2.87-2.34-3.35-4.65-6.71-7.06-10-.53-.73-1.37-1.69-2.1-1.71-4.74-.15-9.48-.08-14.51-.08v15.08h-7Zm7.23,6.33v22.11h13.36a18.67,18.67,0,0,0,2.88-.41c6.32-1.19,9.43-4.84,9.39-11,0-5.86-3.3-9.95-9.48-10.57-5.27-.55-10.64-.13-16.15-.13Z"/><path class="cls-2" d="M1333.77,447.52v6.1H1309v16.17h28.87v6h-36.07v-49.4h35v5.69h-27.7v15.4Z"/><path class="cls-2" d="M903.6,447.59H928v6H903.56v16.15h28.6v6.06H896.24V426.3h35v5.84H903.6Z"/><path class="cls-2" d="M1394.13,476.08a53.46,53.46,0,0,1-6.07-.08,3.18,3.18,0,0,1-2-1.62q-2.13-4.31-3.92-8.78a2.7,2.7,0,0,0-3-2.06q-11.1.15-22.19,0a2.73,2.73,0,0,0-3.07,1.94c-1,2.54-2.38,4.92-3.18,7.5s-2.41,3.48-5,3.13a31.23,31.23,0,0,0-3.62,0c.38-1.12.58-1.91.91-2.64,6.77-15,13.63-29.88,20.26-44.9,1.06-2.39,2.56-2.47,4.57-2.37s3.73-.39,4.9,2.26c6.63,15,13.51,29.93,20.3,44.89A23.54,23.54,0,0,1,1394.13,476.08Zm-15.47-18.36c-3.55-8-7-15.77-10.65-24.15l-10.63,24.15Z"/><path class="cls-2" d="M796.88,476.08l5.57-12.34c5.32-11.76,10.74-23.47,15.87-35.31,1.3-3,3.47-2,5.53-2.26s3,.4,3.93,2.37c6.68,15,13.51,29.89,20.29,44.82.35.77.64,1.57,1.09,2.7a53.6,53.6,0,0,1-6.08-.08,3.14,3.14,0,0,1-2-1.61c-1.41-2.87-2.7-5.81-3.9-8.77a2.72,2.72,0,0,0-3-2.08c-7.48.1-15,0-22.46.12a3.88,3.88,0,0,0-2.69,1.84,45.26,45.26,0,0,0-3.29,7.44c-.84,2.55-2.29,3.59-4.94,3.18A30.16,30.16,0,0,0,796.88,476.08ZM823,433.52c-3.7,8.41-7.1,16.16-10.6,24.1h21.19c-3.5-8-6.85-15.69-10.59-24.13Z"/><path class="cls-2" d="M1162.27,464.9c6.75,4.78,13.8,6.71,21.57,5.08a12.4,12.4,0,0,0,5-2.26,5.81,5.81,0,0,0,1.32-8.11,5.68,5.68,0,0,0-1.68-1.56,38.4,38.4,0,0,0-8.06-3.21c-3.86-1.27-7.9-2.1-11.67-3.58-4.82-1.89-7.66-5.47-7.79-10.91-.13-5.64,2.21-10,7.26-12.29,9.44-4.34,18.69-3.06,28,1.66-.85,2.07-1.59,3.9-2.42,5.92-5.78-3.33-11.72-4.78-18.11-3.61-3.3.6-6.19,2-7.4,5.39a5.76,5.76,0,0,0,3.2,7.49l.1,0a104.45,104.45,0,0,0,10.48,3.46c3,.95,6,1.72,8.84,2.9,9.82,4.08,9.11,16.9,1.63,21.89-7.71,5.15-24.6,4.32-31.54-1.81a2.83,2.83,0,0,1-.61-2.39A26.65,26.65,0,0,1,1162.27,464.9Z"/><path class="cls-2" d="M847.12,432.24v-5.88h41v5.83h-17v43.68h-7v-3.54c0-12.35-.07-24.71,0-37.06,0-2.46-.74-3.17-3.14-3.08C856.53,432.36,852,432.24,847.12,432.24Z"/><path class="cls-2" d="M1217.89,432.26h-17v-5.9h40.88v5.88h-16.93v43.63h-7Z"/><path class="cls-2" d="M1090.08,475.86h-6.65V426.34h6.65Z"/></svg>