<svg xmlns="http://www.w3.org/2000/svg" viewBox="0 0 472.34 47.69"><defs><style>.cls-1{fill:none;}.cls-2{fill-rule:evenodd;}</style></defs><title>Asset 1</title><g id="Layer_2" data-name="Layer 2"><g id="Layer_1-2" data-name="Layer 1"><path class="cls-1" d="M472.34.14a29.76,29.76,0,0,0-9.18.57l-.09,0h-.14a40.91,40.91,0,0,0-5,.2l-1.4.13-1.28.09c-.88.05-1.82.08-2.83.1-2,0-4.3,0-6.73,0H440c-.55,0-.3,0-.36,0h0l-1-.29L437.37.67,436.29.45A29.82,29.82,0,0,0,432.74,0H345.22L230.15,0c-38.39,0-76.82.21-115.28.7Q86,1.06,57,1.92,42.5,2.36,28,2.93l-14.3.58c-4.64.17-9.1.28-13.43.25L0,47.69c5.26,0,10.38-.1,15.33-.28l14.44-.59q14.27-.55,28.53-1c19-.58,38-1,57.12-1.2q57.33-.72,114.79-.69H428.94l1.43,0h.47a6.47,6.47,0,1,0,0-.75c0-4,0-6,0-7.78l.06-2.16.07-1.61a31.29,31.29,0,0,1,.39-3.7,4.13,4.13,0,0,1,.11-.53c.44-2,.09-.43.18-.82l-.06.2c-9.19,33.12-2.7,9.17-4.82,16.55l-.27,0s.25.1.37.15a26.15,26.15,0,0,0,3.39,1.08,29.35,29.35,0,0,0,7.06.8c.6,0,1.2,0,1.8,0l.89,0,.38,0h.16c.11,1.33-.15-10-.07-6.09l0-1.75c0-8.56,0,9.54,0,7.84h5.17c2.36,0,4.84,0,7.65,0,1.39,0,2.84-.08,4.35-.16l2.31-.16,2.18-.2h.06l1.13,0h1.28c.85,0,1.69-.06,2.54-.13s1.69-.18,2.52-.33l1.25-.23,1.16-.25.12,0h0l-.1-.47L471.23,39,470.67,36l-.37-2-.24-1.43-.17-1.18-.12-.83-.08-.75a12.48,12.48,0,0,1-.09-2.33Z"/><path class="cls-2" d="M.14,27.73c0-.06.22-.05.37-.06a5.27,5.27,0,0,1,2.2-.31C1.72,27.44,1.3,27.71.14,27.73Z"/><path class="cls-2" d="M8.7,30.84a9.16,9.16,0,0,1,1.67-.11A3.64,3.64,0,0,1,8.7,30.84Z"/><path class="cls-2" d="M11.65,30.33c0-.19.91-.14,1.47-.18C13.1,30.4,12.06,30.31,11.65,30.33Z"/><path class="cls-2" d="M13,30.58c-.47-.08,1.09-.09,1.29-.17v.18c1.25,0,1.39-.25,2.58-.23C16.14,30.8,14.16,30.65,13,30.58Z"/><path class="cls-2" d="M13.31,30.2c0-.2.67-.2,1.28-.23A8.51,8.51,0,0,1,13.31,30.2Z"/><path class="cls-2" d="M14.24,30.23a6,6,0,0,1,2.4-.17A18.8,18.8,0,0,1,14.24,30.23Z"/><path class="cls-2" d="M13.42,20.29c0-.14.86-.07.7-.27.16,0,.18,0,.19.05h.37A3,3,0,0,1,13.42,20.29Z"/><path class="cls-2" d="M15.82,20.55a2.11,2.11,0,0,1,1.08-.23A1.94,1.94,0,0,1,15.82,20.55Z"/><path class="cls-2" d="M15.76,13.53a8.51,8.51,0,0,1,2-.15A12.63,12.63,0,0,1,15.76,13.53Z"/><path class="cls-2" d="M18.89,30.38a4.88,4.88,0,0,1,2.21,0C20.67,30.48,19.74,30.29,18.89,30.38Z"/><path class="cls-2" d="M21.12,20.19c-.41-.12-.63.08-1.29.06-.11-.15,1.32-.18.71-.28.13-.14,1-.07,1.47-.12C21.76,20,21.15,20,21.12,20.19Z"/><path class="cls-2" d="M21.43,13.39A7.5,7.5,0,0,1,24,13.33C23.35,13.32,22.58,13.34,21.43,13.39Z"/><path class="cls-2" d="M27.35,19.66a2.82,2.82,0,0,1,1.28-.12C28.56,19.68,27.73,19.61,27.35,19.66Z"/><path class="cls-2" d="M28.84,30.35c0-.29,1-.09,1.1,0C29.64,30.57,29.45,30.22,28.84,30.35Z"/><path class="cls-2" d="M39.66,29.88c-.58-.06,1.05-.13,1.1,0C40.51,30.11,40.34,29.79,39.66,29.88Z"/><path class="cls-2" d="M39.61,29.28c0-.09.54,0,.54-.14.29.1,2.19-.09,1.84.05Z"/><path class="cls-2" d="M49.4,29.73a7.1,7.1,0,0,1,2.94,0A28.41,28.41,0,0,0,49.4,29.73Z"/><path class="cls-2" d="M53.56,19.61c-.67.25-2.6,0,0,0Z"/><path class="cls-2" d="M59,29.93a5.86,5.86,0,0,1,2.75-.22C61.15,30,59.82,29.77,59,29.93Z"/><path class="cls-2" d="M62.13,20.69a1.05,1.05,0,0,1,.72-.2c.44.12,0,.23,0,.42C62,21,62.83,20.71,62.13,20.69Z"/><path class="cls-2" d="M74.09,20.37c.07-.14.91-.05,1.28-.1C75.22,20.5,74.64,20.34,74.09,20.37Z"/><path class="cls-2" d="M75,29.77c0-.1,1.34-.28,1.28,0A6.23,6.23,0,0,0,75,29.77Z"/><path class="cls-2" d="M74.79,17.29c-.12-.21,1.45-.12,1.3.08C75.42,17.43,75.37,17.26,74.79,17.29Z"/><path class="cls-2" d="M77,29.65a18,18,0,0,1,3.47-.28A14.2,14.2,0,0,1,77,29.65Z"/><path class="cls-2" d="M80.53,30.69c.35-.14.81.2,1.66.07A3.22,3.22,0,0,1,80.53,30.69Z"/><path class="cls-2" d="M82.56,30.81c0-.12.68-.07.72-.2.25,0,.17.15.2.24A3.08,3.08,0,0,0,82.56,30.81Z"/><path class="cls-2" d="M82.63,29.19a10.39,10.39,0,0,0,3,0C84.92,29.43,83,29.64,82.63,29.19Z"/><path class="cls-2" d="M84.47,42.47c-.18-.21.59-.12.73-.08C86.9,42.33,84.58,42.56,84.47,42.47Z"/><path class="cls-2" d="M83.86,20.33c-.55-.07.2-.24.72-.2C84.89,20.36,83.79,20.18,83.86,20.33Z"/><path class="cls-2" d="M87.81,27c0-.27,1.21-.29,1.82-.22C89.28,27,88.36,26.73,87.81,27Z"/><path class="cls-2" d="M88.46,28.44c.1-.06.51-.11.18-.13.17-.15.81,0,.74.16a2.29,2.29,0,0,1-.73.08C88.68,28.48,88.61,28.45,88.46,28.44Z"/><path class="cls-2" d="M91.43,26.14c-.57-.07,1.06-.11,1.1,0s-.06.05-.18.06-.17,0-.17.06C91.89,26.23,92,26.06,91.43,26.14Z"/><path class="cls-2" d="M93.61,20.09C93.2,20,95,20,95.44,20A7,7,0,0,1,93.61,20.09Z"/><path class="cls-2" d="M96,22.67h.73C96.88,22.88,95.86,22.91,96,22.67Z"/><path class="cls-2" d="M99.66,22.47c.33-.34,1.26.06,2,0A7.18,7.18,0,0,1,99.66,22.47Z"/><path class="cls-2" d="M103.78,32.41c.54,0,.57.12,1.11.09C104.87,32.69,103.71,32.61,103.78,32.41Z"/><path class="cls-2" d="M109.36,24.62a3.91,3.91,0,0,1,1.65-.15C110.65,24.57,109.86,24.55,109.36,24.62Z"/><path class="cls-2" d="M112.12,24.57c.15-.2,1.62,0,2.38-.16A10,10,0,0,1,112.12,24.57Z"/><path class="cls-2" d="M116.47,32.77c.25-.14,1.35-.07,1.11.16C117,33,117.28,32.67,116.47,32.77Z"/><path class="cls-2" d="M116.74,25c.14-.22,1.09-.18,1.82-.22.15.15-1.24.13-.53.25C117.79,25.16,117.21,24.93,116.74,25Z"/><path class="cls-2" d="M120,24.67c.38.11-.07.12-.17.24-.32-.05-1,0-.93-.16a2.14,2.14,0,0,0,.56.05C119.67,24.76,119.67,24.66,120,24.67Z"/><path class="cls-2" d="M119.85,24.61c.5-.18,1.15.18,1.83,0C121.47,24.87,120.16,24.78,119.85,24.61Z"/><path class="cls-2" d="M122.94,14.66c-.11-.25.89-.11.92,0C123.71,14.82,123.39,14.57,122.94,14.66Z"/><path class="cls-2" d="M127.09,19.45c-.15-.23,1.18-.15.92.05A3.43,3.43,0,0,0,127.09,19.45Z"/><path class="cls-2" d="M130.6,16.64a2.62,2.62,0,0,1,1.29-.08C131.82,16.69,131,16.59,130.6,16.64Z"/><path class="cls-2" d="M133.32,6.27a1.65,1.65,0,0,1,.73-.13c0,.11.23.12.2.24h-.56C134,6.28,133.86,6.25,133.32,6.27Z"/><path class="cls-2" d="M142,22.41c2.48-.21,5,0,7.72-.05C147.14,23,144.51,22.19,142,22.41Z"/><path class="cls-2" d="M141.4,12.15c-.06-.19,1-.28.92,0Z"/><path class="cls-2" d="M142.54,9.56a3.1,3.1,0,0,1,1.29,0C143.56,9.72,143,9.5,142.54,9.56Z"/><path class="cls-2" d="M144.89,12.05a4.05,4.05,0,0,1,1.28-.14C146.33,12.13,145.31,12,144.89,12.05Z"/><path class="cls-2" d="M147.24,11.29c-.85-.1,1.23-.25.93,0C147.71,11.37,147.39,11.12,147.24,11.29Z"/><path class="cls-2" d="M148.53,11.28c-.09-.15,1.59-.24,1.47,0A10.66,10.66,0,0,0,148.53,11.28Z"/><path class="cls-2" d="M149.9,22.54c-.08-.26,1.27-.08,1.27-.32.43,0,.86.07.93.23C151.48,22.62,150.37,22.44,149.9,22.54Z"/><path class="cls-2" d="M152.5,19.8c-.69-.16.86-.12,1.29-.13,0,0-.07,0-.19.06v.12C153.2,19.88,152.6,19.68,152.5,19.8Z"/><path class="cls-2" d="M155.83,20.06a2,2,0,0,1,1.27-.25C156.61,19.87,156.4,20,155.83,20.06Z"/><path class="cls-2" d="M156.61,14.23a3.73,3.73,0,0,1,1.1-.13C157.77,14.29,156.92,14.33,156.61,14.23Z"/><path class="cls-2" d="M156.8,10.93c0-.07.37,0,.36-.13a2,2,0,0,0,.93.17A2.43,2.43,0,0,1,156.8,10.93Z"/><path class="cls-2" d="M157.45,6c-.16-.23.87-.09,1.29-.13C158.72,6,158,6,157.45,6Z"/><path class="cls-2" d="M165.64,34.77a2.56,2.56,0,0,1,1.08-.32c.11.09-.7.16-.17.19A2,2,0,0,1,165.64,34.77Z"/><path class="cls-2" d="M165.14,11.91A3.92,3.92,0,0,1,167,12,16.5,16.5,0,0,0,165.14,11.91Z"/><path class="cls-2" d="M169,36c.1-.05.19-.1.18-.18a8,8,0,0,0,2.39,0A5.72,5.72,0,0,1,169,36Z"/><path class="cls-2" d="M170,33.76a7.72,7.72,0,0,1,2.19-.14A10.84,10.84,0,0,1,170,33.76Z"/><path class="cls-2" d="M172,36c-.12-.35,1.21.07.91-.19,0-.15.6,0,.55,0,2.55-.07.83.14-.18.07-.18,0-.14.07-.18.12C172.5,36.06,172.51,35.91,172,36Z"/><path class="cls-2" d="M171.07,9.14a1.58,1.58,0,0,1,1.1-.13A3.68,3.68,0,0,1,171.07,9.14Z"/><path class="cls-2" d="M172.13,11.71a3.27,3.27,0,0,0,1.84-.08c-.14.06-.19.14-.17.25a10.3,10.3,0,0,0-1.47.07C172.18,11.9,172.12,11.82,172.13,11.71Z"/><path class="cls-2" d="M172.46,11c1.36-.1,2.62-.56,3.85-.34,0,.13-.78,0-1.1.07,0,.17.77.1,1.29.11A17.7,17.7,0,0,1,172.46,11Z"/><path class="cls-2" d="M175.8,35.92c0-.17.77-.12,1.28-.13A3.25,3.25,0,0,1,175.8,35.92Z"/><path class="cls-2" d="M177.46,36c-.09-.19.38-.19.91-.19C178.27,35.9,178.1,36,177.46,36Z"/><path class="cls-2" d="M178.74,35.83c0-.29,2.47.28,2-.2.27.07.5.26.2.35C179.87,35.92,179.86,35.87,178.74,35.83Z"/><path class="cls-2" d="M179.26,10.74v-.18a6.88,6.88,0,0,0,1.85.1c.06.16-1-.05-.73.19A2.9,2.9,0,0,0,179.26,10.74Z"/><path class="cls-2" d="M180,20.81c.64,0,1.42,0,1.48.17C180.8,21,180,21,180,20.81Z"/><path class="cls-2" d="M181.11,11c.27-.15.38-.12.17-.3.39.12.88,0,.91-.13.58,0,.09.29.75.23A16.24,16.24,0,0,1,181.11,11Z"/><path class="cls-2" d="M181.6,9.69c.14-.13,1.22-.21,1.11.05A5,5,0,0,0,181.6,9.69Z"/><path class="cls-2" d="M183.14,10.88a2.89,2.89,0,0,1,1.46-.13A5.34,5.34,0,0,1,183.14,10.88Z"/><path class="cls-2" d="M183.52,11.12c.2-.22.62-.18,1.1-.07C184.6,11.18,183.84,11.08,183.52,11.12Z"/><path class="cls-2" d="M185.46,9.6a7.38,7.38,0,0,1,1.84-.08A10.79,10.79,0,0,1,185.46,9.6Z"/><path class="cls-2" d="M187.16,35.33c0-.14.46-.14.92-.13.14.18-.18.22-.17.36C187.59,35.51,187.6,35.34,187.16,35.33Z"/><path class="cls-2" d="M186.85,11.45c-.27-.21,2.08-.31,2.2-.21S187.12,11.37,186.85,11.45Z"/><path class="cls-2" d="M188.62,6.57h.55c.2.06.19.31-.35.31C189,6.69,188.55,6.71,188.62,6.57Z"/><path class="cls-2" d="M190.23,34.28c.22-.09.15-.27.73-.25C190.9,34.17,190.85,34.31,190.23,34.28Z"/><path class="cls-2" d="M192.62,34.26c0-.19.64-.16,1.09-.19C193.73,34.25,193.08,34.22,192.62,34.26Z"/><path class="cls-2" d="M192.7,10.67c.3-.12,0-.08,0-.24.27.07.82.05.74.23Z"/><path class="cls-2" d="M195.48,11.07c.07.1-.14.11-.36.12,0,.07,0,.1.19.12C194.69,11.52,194.65,11,195.48,11.07Z"/><path class="cls-2" d="M195.14,8.07c1-.17,1.33.12,2.39-.08C197.58,8.3,195.42,8.2,195.14,8.07Z"/><path class="cls-2" d="M196.59,11.18c.12-.18.68-.22,1.09-.31-.11.05-.42.22.19.18.1.08-.71.15-.17.18C197.08,11.47,197.28,11,196.59,11.18Z"/><path class="cls-2" d="M196.55,10.46c.38-.3,1.94,0,2.58,0C198.07,10.63,197.59,10.3,196.55,10.46Z"/><path class="cls-2" d="M198.52,34.62a14.54,14.54,0,0,1,2,.05A6.84,6.84,0,0,1,198.52,34.62Z"/><path class="cls-2" d="M202.69,8.13c-.21,0-.16-.11-.19-.18.58,0,1.22-.21.91-.25.88-.15,1.71,0,2.76-.08-.15,0-.19.14-.18.24C204.49,7.63,204,8,202.69,8.13Z"/><path class="cls-2" d="M204.29,10.63c.45-.12,2-.19,1.3.11C205.34,10.52,204.77,10.78,204.29,10.63Z"/><path class="cls-2" d="M205.78,7.26c-.29-.18,1.19-.19.92,0Z"/><path class="cls-2" d="M206.31,10.5c-.3-.1,1.45-.06,1.84-.14C207.93,10.64,207.1,10.5,206.31,10.5Z"/><path class="cls-2" d="M206.51,10.68a10.59,10.59,0,0,1,3.32.33A24.21,24.21,0,0,1,206.51,10.68Z"/><path class="cls-2" d="M206.54,7.8c.14-.35,1.08.2,1.1-.13.25,0,.16.15.2.24C207.16,7.84,207,7.83,206.54,7.8Z"/><path class="cls-2" d="M207.39,10c0-.13.65,0,.91-.07-.11.19-.12.12,0,.3C207.89,10.14,207.82,10,207.39,10Z"/><path class="cls-2" d="M208.47,9.52c.18-.15.72-.3.92-.13A2,2,0,0,1,208.47,9.52Z"/><path class="cls-2" d="M210.33,9.93a5.08,5.08,0,0,1,2.21-.14c-.33.13-.68,0-.36.24A6,6,0,0,0,210.33,9.93Z"/><path class="cls-2" d="M215,22.85c-.21,0-.16-.1-.19-.17.59-.06.58.09.93.11C215.72,23,214.94,22.69,215,22.85Z"/><path class="cls-2" d="M215.49,10c-.33-.32,3.37-.3,2.77.1-.22,0-.17-.11-.2-.18C217.34,10.06,216.25,9.83,215.49,10Z"/><path class="cls-2" d="M218.55,23.49a1.55,1.55,0,0,1,.91-.13v.18A3.06,3.06,0,0,1,218.55,23.49Z"/><path class="cls-2" d="M220.53,22.58a9.62,9.62,0,0,1,2-.14A7.87,7.87,0,0,1,220.53,22.58Z"/><path class="cls-2" d="M223,35.16c.54,0,.63.15,1.11.17C223.92,35.45,223,35.31,223,35.16Z"/><path class="cls-2" d="M224.06,23.39a1.85,1.85,0,0,1,1.28-.31A3.4,3.4,0,0,1,224.06,23.39Z"/><path class="cls-2" d="M225.4,9.46c.08-.13.91,0,1.29-.07A2.29,2.29,0,0,1,225.4,9.46Z"/><path class="cls-2" d="M226.62,23c0-.12.68-.06.72-.18s.18,0,.19.06.07.06.19.06A1.89,1.89,0,0,1,226.62,23Z"/><path class="cls-2" d="M230.53,35.29v-.18c.46.07,3.73,0,1.29,0A4.69,4.69,0,0,1,230.53,35.29Z"/><path class="cls-2" d="M231.37,37.45a3,3,0,0,1,1.46-.07C232.7,37.51,231.8,37.41,231.37,37.45Z"/><path class="cls-2" d="M234.32,22.67c0-.24,1.86-.13,2.21-.08C236.24,22.68,234.88,22.52,234.32,22.67Z"/><path class="cls-2" d="M235.78,37.48c.51,0,.86-.26,1.1-.07A1.4,1.4,0,0,1,235.78,37.48Z"/><path class="cls-2" d="M237.26,37.71v-.18c.28.07.82,0,.75.24C237.67,37.78,237.61,37.69,237.26,37.71Z"/><path class="cls-2" d="M238.64,9.14c.15-.13.44-.22,1.09-.19C239.63,9.1,239,9.09,238.64,9.14Z"/><path class="cls-2" d="M240.44,35.11c-.71-.13.69-.09.54-.24.33,0,.43.1.38.24C240.91,35.19,240.59,34.93,240.44,35.11Z"/><path class="cls-2" d="M241.1,37.33c0-.25.65,0,1.1-.13v.18C241.65,37.43,241.66,37.28,241.1,37.33Z"/><path class="cls-2" d="M242,36.66c-.55-.12,1.32,0,.9-.24C243.8,36.53,242.82,36.74,242,36.66Z"/><path class="cls-2" d="M244.05,37.61c0-.06.23,0,.37-.06s.1-.06,0-.06c.05-.08.46-.05.73-.06C245.27,37.64,244.61,37.61,244.05,37.61Z"/><path class="cls-2" d="M246.58,36.58v-.24a6.09,6.09,0,0,0,1.29,0C247.85,36.59,247,36.52,246.58,36.58Z"/><path class="cls-2" d="M251.23,37.87c.61-.08,1.18-.18,1.83-.25A3.51,3.51,0,0,1,251.23,37.87Z"/><path class="cls-2" d="M249.85,8.9c.23-.22,1.57,0,2.39,0,.07.16-1-.05-.73.19C251,8.85,250.72,9,249.85,8.9Z"/><path class="cls-2" d="M269.61,37.72v-.24c-.06.16,1.1.25.55.06.27-.2.46.12.92.05A4.64,4.64,0,0,1,269.61,37.72Z"/><path class="cls-2" d="M279.53,37.67a3.14,3.14,0,0,1,1.28-.12A3.13,3.13,0,0,1,279.53,37.67Z"/><path class="cls-2" d="M279.17,6.53c0-.12.81,0,.92-.12a2.36,2.36,0,0,0-.56-.12c.32-.18,1,0,.74.24C279.64,6.48,279.5,6.64,279.17,6.53Z"/><path class="cls-2" d="M282.78,36.28c.11-.06.21-.11,0-.12.41-.13.35.13,1.1,0C283.86,36.31,283.27,36.28,282.78,36.28Z"/><path class="cls-2" d="M283.36,36.94a6,6,0,0,1,1.84,0A6,6,0,0,1,283.36,36.94Z"/><path class="cls-2" d="M284.06,36.15c.55-.06,1.17,0,2,0-.33.14-1.44,0-1.83.13C284.27,36.2,284.2,36.17,284.06,36.15Z"/><path class="cls-2" d="M293.17,38.45c.43-.16,1.12.09,1.66-.06C294.83,38.72,293.77,38.45,293.17,38.45Z"/><path class="cls-2" d="M293.15,37.85c-.24-.19.59-.05.35-.24.43,0,.21.17.56.18C293.9,38,293.72,37.82,293.15,37.85Z"/><path class="cls-2" d="M293.74,38.81c.24.08.87,0,1.11.12C294.47,39.08,293.76,39.06,293.74,38.81Z"/><path class="cls-2" d="M296.46,37.84a8,8,0,0,1,2.75-.07,1.75,1.75,0,0,1-.91.18c.75-.16-1.59-.23-1.1.07C296.72,38,297,37.78,296.46,37.84Z"/><path class="cls-2" d="M303.06,37.45v-.18c.68-.07.3.22.93.18C303.94,37.59,303.17,37.48,303.06,37.45Z"/><path class="cls-2" d="M306.4,38c.14-.32,1,0,1.64-.18C307.94,38.05,306.81,37.93,306.4,38Z"/><path class="cls-2" d="M307,39.35v-.18c.14.14,1.27-.06,1.11.18Z"/><path class="cls-2" d="M315.41,6.73c.06-.16.83-.13,1.64-.19-.06.1.15.12.38.12C317,6.77,316.1,6.6,315.41,6.73Z"/><path class="cls-2" d="M318.47,40.56c.25-.12,1.13,0,1.47-.13C319.81,40.64,318.92,40.61,318.47,40.56Z"/><path class="cls-2" d="M334.34,6.64a1.75,1.75,0,0,1,.91-.18C335.49,6.69,334.83,6.64,334.34,6.64Z"/><path class="cls-2" d="M351.59,6c.11,0,.51-.09.18-.12a10.7,10.7,0,0,1,2.94,0C353.63,6,353,6,351.59,6Z"/><path class="cls-2" d="M352,6.79c.36-.16,1.06-.21,1.45-.36C353.29,6.77,352.85,6.76,352,6.79Z"/><path class="cls-2" d="M354.92,6.36c0-.07-.34-.05-.55-.06.2-.17,1.05-.14,1.27-.31.31,0,.12.14-.18.13.17.21,0,.14.2.35a15.78,15.78,0,0,0-1.65.19c-.27,0-.4-.15-.38-.3C354.16,6.16,354.55,6.51,354.92,6.36Z"/><path class="cls-2" d="M355.81,5.81c.24-.23.86-.07,1.28-.12.69-.08-.2-.34.74,0A18.05,18.05,0,0,1,355.81,5.81Z"/><path class="cls-2" d="M358.76,40.66c.13-.39.83.07,1.46-.12C360.34,40.77,359.22,40.61,358.76,40.66Z"/><path class="cls-2" d="M361.51,5.79a11.42,11.42,0,0,1,2-.13A10,10,0,0,1,361.51,5.79Z"/><path class="cls-2" d="M365.21,6.19c.35.11.46,0,.92,0C366.32,6.42,365,6.43,365.21,6.19Z"/><path class="cls-2" d="M367.1,7.2c.31-.11.48,0,1.1-.07C368.38,7.35,367.23,7.25,367.1,7.2Z"/><path class="cls-2" d="M372.41,41.67a4.83,4.83,0,0,0,1.47-.06C373.83,41.78,372.48,42,372.41,41.67Z"/><path class="cls-2" d="M371.44,13.54v-.18a6.11,6.11,0,0,1,1.66,0A13.48,13.48,0,0,1,371.44,13.54Z"/><path class="cls-2" d="M378.51,11.34c0-.11.31-.14.73-.12,0,.07.05.1.19.12C379.39,11.48,378.62,11.37,378.51,11.34Z"/><path class="cls-2" d="M379.05,11c.31-.1.67,0,1.28-.07.12.21-.53.19-1.09.19C379.27,11.09,379.19,11.05,379.05,11Z"/><path class="cls-2" d="M381.17,9.29c.58-.13.86-.12,1.65-.25a.71.71,0,0,0,.37.12c.08.14-.84,0-.54.18A14.62,14.62,0,0,0,381.17,9.29Z"/><path class="cls-2" d="M387.92,15.73c-.09-.33,1.22,0,1.82-.19.08-.27-.86-.16-1.29-.11.21-.46,1.91.21,1.83-.31a10.77,10.77,0,0,0,1.47.05c.18.22-.72.09-1.1.13.7.23-.61.21.21.48A14.9,14.9,0,0,0,387.92,15.73Z"/><path class="cls-2" d="M392.09,41.64c-.13-.35,1,0,1.09-.25.37.1-.57.33.21.48C392.76,42.09,392.65,41.63,392.09,41.64Z"/><path class="cls-2" d="M397.38,40.71c.93-.13-.56-.29,1.08-.37l0,.3C397.83,40.67,398,40.81,397.38,40.71Z"/><path class="cls-2" d="M398.32,41.18a22.46,22.46,0,0,1,2.55-.55c.05-.1-.18-.1-.19-.18-.43.08-1,.11-1.47.19-.11-.17.49-.56-.76-.6.9-.32,1.43.42,2.77.35,0,.26.34.41.76.53a6.37,6.37,0,0,1-1.26.43,1.58,1.58,0,0,1-1.12-.23C399.17,41.27,399.12,41.18,398.32,41.18Z"/><path class="cls-2" d="M400.44,39.31c1.3-.05.09.37,1.3.36a8.14,8.14,0,0,1-.91.18C401,39.57,400.36,39.56,400.44,39.31Z"/><path class="cls-2" d="M404.88,12.83c.51-.17.14-.15,0-.36.33,0,.39-.08.74-.07C405.28,12.52,405.78,12.9,404.88,12.83Z"/><path class="cls-2" d="M406.37,9.4c.33-.13,1.08-.18.93.11C406.73,9.56,406.94,9.35,406.37,9.4Z"/><path class="cls-2" d="M411.83,8.11c-.11-.21,1.64-.14,1.83-.07.45,0,.4-.23.54-.36a2.87,2.87,0,0,1,.94.53c-.33.11-2.11,0-1.66-.11A10.12,10.12,0,0,1,411.83,8.11Z"/><path class="cls-2" d="M414.89,14.58a2.92,2.92,0,0,1,1.48.05C416.13,14.76,415.37,14.56,414.89,14.58Z"/><path class="cls-2" d="M420.29,16.11c.59-.07,1-.2,1.64-.25C421.91,16.17,421,16.15,420.29,16.11Z"/><path class="cls-2" d="M421.8,24.44v-.18c.27,0,.95-.07.93.06C422.92,24.52,422.15,24.41,421.8,24.44Z"/><path class="cls-2" d="M422.93,24.92c.06-.16.47-.21.91-.25,0,.18.69.2.2.36S423.62,24.85,422.93,24.92Z"/><path class="cls-2" d="M426.75,41.52a5.81,5.81,0,0,1,1.86,0c0,.08-.55.08-.56,0-.27.06-.58.1-.54.25C427,41.75,426.78,41.67,426.75,41.52Z"/><path class="cls-2" d="M427.14,41.82a5.93,5.93,0,0,0,1,.13l.55,0h.76a7.25,7.25,0,0,1,1.22.06c.1,0,.14,0,.16.09,0-1.73,0-3.41,0-5.15,0,1.37,0,3.14,0,5.25,0,0-.06,0-.17,0s-.77,0-1.62,0A4.38,4.38,0,0,1,427.14,41.82Z"/><path class="cls-2" d="M428.91,19.73c.32-.06,1.25-.16,1.26.08C429.62,19.81,429.37,19.73,428.91,19.73Z"/><path class="cls-2" d="M431.38,27.66l.05-.23,0-.08.22-1v.05l0,.17-3.71,13.33-.25-.06-.11,0,.16,0,.37.13c0,.16.05.39-.4.3l-.23-.13s.18,0,.27,0h.13q1.86-6.69,3.72-13.43v0l.05-.19,0-.11v-.05h0l-.22,1v0Z"/><path class="cls-2" d="M432,22.07a3.25,3.25,0,0,1,1.41.22,12.54,12.54,0,0,1,1.42.71c.93.51,1.85.7,2.25,1a5.05,5.05,0,0,1-2.3-.71A6.48,6.48,0,0,0,432,22.07Z"/><path class="cls-2" d="M439,25.59c.1-.13.3-.13.58-.12a6,6,0,0,0,.95,0c0-.13-.11-.19-.54-.17.48-.19,1,.13,1.27.23s-.5.12-.35.3a5.8,5.8,0,0,1-1-.11C439.6,25.68,439.32,25.62,439,25.59Z"/><path class="cls-2" d="M444.07,38.65a10.38,10.38,0,0,1,2.77.17A24.75,24.75,0,0,1,444.07,38.65Z"/><path class="cls-2" d="M469.67,29.59l-.05-.55,0-.46c0-1,0-1.21,0-1v.74c0,.17,0,.31,0,.48S469.63,29.29,469.67,29.59Z"/><path class="cls-2" d="M4.18,27H3.25c0-.08,0-.17-.19-.17.29-.05.26-.2.73-.19-.16.27,1.5.49.22.59C4.15,27.23,4.2,27.15,4.18,27Z"/><path class="cls-2" d="M35.9,31.18a8.25,8.25,0,0,1,2.94,0Z"/><path class="cls-2" d="M45.35,29.77a4.89,4.89,0,0,0-1.11-.08c.19-.17.33-.42-.58-.33.52-.11,1.19-.18,1.63-.31-.17.26.67.45-.33.5.15.18.5.05.93,0C46.48,29.63,45.14,29.63,45.35,29.77Z"/><path class="cls-2" d="M54.91,32.05c-.14-.35,1.49-.5,1.64-.24C55,31.76,55.8,31.88,54.91,32.05Z"/><path class="cls-2" d="M57.3,29.69c0,.18-1.19.18-1.46.11.06-.08.31-.11.35-.2C56.26,29.74,56.45,29.8,57.3,29.69Z"/><path class="cls-2" d="M80.24,31.78a44.89,44.89,0,0,0,5,0c.66.43,3.73-.22,4.07.44.74,0,.26-.36,1.08-.33.58.08,1,.2,1.67.26a2.62,2.62,0,0,1,1.84.08c-.25,0-.16.11-.36.12a11.1,11.1,0,0,0-3.3.09,38.43,38.43,0,0,0,4.21-.11c-.21,0-.51,0-.55,0,.54,0,.55-.15,1.09-.15.13.13-.5.2.2.18a2.52,2.52,0,0,1,.72-.2,18.06,18.06,0,0,0,4.22,0c1.69.46,5.19-.26,5.54.54a15.5,15.5,0,0,1,4.41,0c.34,0,.11-.2.54-.19,1.48.33,3.71-.23,5.5-.1-.1.24-1.84,0-1.27.26,2.6-.28,4.77.17,6.81.12-.06.14-.8.07-.72.26.57,0,1.81.06,2.57-.05.06.08.27.11.2.24a21.7,21.7,0,0,1,4,.17c.24-.14-.49-.21,0-.24h1.11c-.24.08-.23.23.19.23,1.57-.12,3.51,0,4.95-.25-.54.23.48.05.55.05s0,.12,0,.12c2.8.24,8.43-.42,9.73-.08-.31-.14.8-.4,1.46-.2.15.16-.35.12-.35.24,4.44-.17,9.32-.09,14.5-.18-.14,0-.36,0-.37-.06a49.1,49.1,0,0,0,5.52.05c1.84.08,5.27,0,6.25,0-.17,0-1.06-.12-.56-.18a30.32,30.32,0,0,0,6.44.29c.22.29,2.21.27,2.21,0a2.14,2.14,0,0,0-1.1.13c-.24-.08-1,0-.75-.23.94,0,3.87-.1,2.4.15,2.84-.24,3.73.2,6.25,0,.48.58,3.9.07,3.69.39a5.14,5.14,0,0,1,2.4.1c-1.58.17-2.69.06-3.67.21a2.83,2.83,0,0,1,1.29.11,5.36,5.36,0,0,1,2.39,0c0-.27.74,0,.92,0,.22-.2-.6,0-.38-.24a17.35,17.35,0,0,1,3.87.15,1.52,1.52,0,0,0-.73.13c1-.1,2.19.21,2.38-.14-.38,0-1.2.08-1.29,0a11.84,11.84,0,0,1,3.13.09c-.24,0-1.33,0-.73.07a7.21,7.21,0,0,0,1.65-.14,28.32,28.32,0,0,0,5.16.38,6.4,6.4,0,0,1,2.19-.2c0,.09.1.14.2.18s-.71.06-.54.25a18.13,18.13,0,0,1,3.5.15c.45-.13,2.67-.28,2.94.1a18.09,18.09,0,0,1-3.12,0c-.19.2-3.79-.08-3.48.27a1.06,1.06,0,0,0-.74-.17c-.26.09-.83.18-1.27.36.07-.42-1.09.22-1.29-.16-.6-.05-.38.15-.73.18-.5-.05-.72-.2-1.3-.23-4.16.49-8.91,0-13,.17a11.92,11.92,0,0,1,2.59.22c-.32,0-.93-.16-1.1,0a6.46,6.46,0,0,1,1.1.11c-1,.11-1.66-.2-2-.1,1.06,0,0,.22,0,.24.36.1.92-.07,1.48.16,0-.11-.21-.13-.2-.23.38,0,.37.16.75.17,2.53-.64,6.53-.1,9.53-.44.17.31.81.14.73,0a3.26,3.26,0,0,1,1.31.35c.74-.41,3,0,4-.27,1.14.35,3.69-.08,5,0-.15,0-.22-.05-.19-.12a3.84,3.84,0,0,1,1.47.05c-.43.15-.35-.08-.92-.05,1.34.42,3.43.07,5.34.2a8.71,8.71,0,0,1,1.09-.19,8.22,8.22,0,0,0,2.21.11c.13-.18.44-.3,1.27-.25a10.06,10.06,0,0,0-3.87-.21c.64-.23-.38-.27.35-.42.54.33,3.46.07,4.23.14-.35,0-.79,0-.74-.17a8,8,0,0,1,2,0c-.92,0-.7.21-1.28,0a4.21,4.21,0,0,0,1.48.41c.13-.19-.63-.07-.38-.3a1.74,1.74,0,0,0,.37-.07c.26.17,2,.06,1.48.3a9.91,9.91,0,0,1,3.88.27,49.63,49.63,0,0,1,6.23-.22c0,.09-.05.22.2.24.14-.13.63-.15.91-.24.06.21.49,0,.55.11-.26,0-.2.14-.36.19a3,3,0,0,1,.92,0c.13-.19-.63-.07-.38-.3a6.49,6.49,0,0,0,.92-.12c.72.22,1.82-.18,3.12,0,0,.08-.25.11-.17.24.67,0,.64-.27,1.27-.31,0,.09-.29.11-.36.18.9-.44,3.1,0,3.68,0-.2,0-.44-.09-.19-.11,3,.1,5.51-.05,8.27-.05,0,.07-.26.1,0,.12,1.24-.06,7.59-.76,6.43,0,.14,0,.36,0,.37.06-.22,0-.52,0-.55.06a17.47,17.47,0,0,0,2.39-.13,2.69,2.69,0,0,0,.56.24c1.34-.43,2.29.22,3.68,0,.06.15-.71.05-.54.24,1.86-.5,5.06-.09,7.7-.28.07.16-1,0-.72.19,1.9-.18,5.5,0,7.9-.16-.56.19.68.08.74.24-1.6.41-3.34,0-5.5.38.11.09-.19.31.2.3.57-.56,2.87-.23,4.39-.44.09.1.58.05.38.24a24.94,24.94,0,0,1,6.43-.09c.54-.26,1.81,0,2.76-.13-.4.09-.28.34-.91.36-.22-.15.56-.26-.19-.24-.22.45-2.62.16-3.11.32.47,0-.25.1,0,.24.78-.17,1.5,0,2.2-.19.41.18,1.95.35,1.1,0,.64.35,2.11.07,2.78.35-2,0-2.73.24-4.22.26a9.16,9.16,0,0,0,2.21.11c0,.08-.08.13-.18.18a35.23,35.23,0,0,1,6.45.33c0-.07,0-.17.18-.18a26.13,26.13,0,0,0,4.6.1c-.22,0-.43,0-.37-.12.8,0,1.76-.06,1.85.17.42,0,.16-.26.72-.24a15.44,15.44,0,0,0,1.49.47c-.59-.23,2.48-.36,1.66.06a7.15,7.15,0,0,1,2.58.17,4.94,4.94,0,0,1,1.09-.31c-.15-.57.24-.64.14-1.08-1,.13-1.69.21-2-.17a4.42,4.42,0,0,1-2,0c-1.23.38-3-.12-5,0,.09-.29-.62-.07-.94-.3.66,0,1.23-.08,1.84-.12-.26.18,0,.23.38.35a2.46,2.46,0,0,1,1.47,0c.21-.25-.78-.11-.93-.24.71-.09,1.57-.13,2.2-.25a4.37,4.37,0,0,0,2.58.17c.37.14.37.16,0,.3a16.34,16.34,0,0,1,5,0c.47-.44,2,.13,2.57,0a1.22,1.22,0,0,1-.56-.18c.57,0,.54-.11,1.1-.07,0,.24.7.22,1.12.3.17-.11-.56-.2,0-.24a14.61,14.61,0,0,0,3.31-.08c.17.2,0,.37,1.12.36,0-.11,0-.19.17-.24-.46-.08-.76.18-.92,0,1.07-.12,1.86.27,2.75-.13.27,0,.72,0,.57.24-.36,0-.16-.23-.75-.18.24.28-.7.29-1.27.31,1.2,0,1.94.66,2.4.23,1.83.13,3.07.37,5,.57,0,.09-.29.1-.35.18,1,.12,1.54-.31,1.66.06a10.05,10.05,0,0,0-2.39.13,1.63,1.63,0,0,1,.74.11c-.82-.13-.16.24-1.65.13.16.23-.53.19-.53.36a8.47,8.47,0,0,1,1.48.24,7.21,7.21,0,0,1-3.13-.11c.26,0,.95.07.91-.06-1,0,.64-.22-.37-.18a7.42,7.42,0,0,1-1.83.37c.37-.25-.82.16-1.11-.18-.31.06-.36.2-.72.25a36.34,36.34,0,0,0-5.72-.4c.27.07.82,0,.74.24a3,3,0,0,0-.36.06c-.58-.27-1.8,0-2-.29a4.91,4.91,0,0,1-1.47,0c-.16.13.11.28-.91.24.05-.12.49-.12.54-.24-1.45,0-4.07.22-5-.1-2.35.93-6.17-.34-8.08.34,0-.08-.32-.06-.37-.12.48,0,.66,0,.55-.18a14.78,14.78,0,0,1-2.22-.12c.29.33,1.72.28,2.23.54a13.62,13.62,0,0,1-2,.06,9.3,9.3,0,0,0,2.4.17.42.42,0,0,1,.36-.18c.26,0,.48.17.75.18,1.23.05,3-.26,3.68.1-.65,0-1,.06-1.1.19,3.07-.15,5,0,8.46,0,0,.06-.14.07-.18.12a37.56,37.56,0,0,0,3.86-.2c0,.09-.3.11-.36.18.77,0,1.38-.15,2-.24-.38.14.62.19.75.35,0-.13.14-.19.55-.18s-.23.15.19.18c.94-.08,2-.11,2.75-.25,0,.11-.94.2-.36.3,1.14-.32,4.25.1,5.34.15-.54-.07.57-.19.74-.06.23-.15-.74-.18-.2-.24.26.23,1.47.06,1.67.17s-.63,0-.55.19a24.48,24.48,0,0,0,2.59.28c-1.71.27-5.13-.18-7.53.28.16.14.81-.06,1.1-.07.14.4.64,0,1.11.18-.44.49-2,0-2.75.13.22,0,.44,0,.37.12a3,3,0,0,0-.36.06c-1.15,0-3.2-.24-3.31.08a12.62,12.62,0,0,0-2.4-.29,5.28,5.28,0,0,1,2.23.53c0,.08-1.32,0-.73.12a18.41,18.41,0,0,1,3.12-.19c-.14-.1-.9,0-.75-.18.56,0,1.43-.07,1.48.11-.53.1.29.32.38.18-.5-.05.14-.22.35-.24,0,.09.45.05.74.06,0,.1.05.18.2.23a7.33,7.33,0,0,0,1.28-.12c2.37.32,5.65-.34,7.9-.16-.11,0-.22,0-.18.06.38-.26,1.53-.06,1.46-.25a3.63,3.63,0,0,0,1.29.06c-.11-.11-.87,0-.92-.12s.2-.09.36-.12a1.72,1.72,0,0,0,1.1,0l.56.17c1.14-.09,1.64-.07,2.75-.13,0,.08-.07.13-.17.18a3,3,0,0,1,1.29.05,5.61,5.61,0,0,0-1.27.31c.8-.1,2.1,0,2.37-.31-.33,0-.75.18-.92,0a10.82,10.82,0,0,0,1.46-.24c0,.1.19.13.56.11-.4.16.23.33.57.42.11-.22-.41-.23-.39-.42.86,0,.19-.09.55-.12a17,17,0,0,1,1.85.23c-.21.19-.94.21-1.27.37,1,0,1.12-.24,2-.25,0,.15-.34.18.2.23a24.92,24.92,0,0,1,4.95-.32c-.26-.15-.55.11-.74-.06,0-.08.4-.07.54-.12.11.15.72.12.57.36a30.62,30.62,0,0,1,3.49-.14c.17.09.47.45.93.24-.22,0-.44,0-.37-.12.77-.06,1.31-.07,2.57-.08.14.42,1.65.38,2.42.59.4-.09-.24-.14.17-.18a53.52,53.52,0,0,0,5.54.39c-1.2.11,1.15.08.38.24a11.7,11.7,0,0,1,2.75-.13c-.3,0-.31-.28,0-.24s.06.22.74.11c-.1.22.08.34.57.36.25,0,0-.23.35-.24.58.09.72.05,1.11.11a1.08,1.08,0,0,0-.54.19c.61-.05.3.12.19.17a7.13,7.13,0,0,1,1.48.24c0-.3-.48-.44,0-.66-.58,0-.52-.27-.75-.42a49,49,0,0,1,8.67.62c-.35.19-.34.37.21.54,1.05-1.14,4.63.15,7-.34.24-.33-.17-.37-.22-.72a4.33,4.33,0,0,0,2.37-.49c1.09-.11,1.56-.06,2.75-.13,0,.07.06.14.38.11.49,0-.5-.1-.2-.29,1.25,0,1.53-.62,2.73-.5-.38-.32,0-.52.15-.66,0,.08.52.07.56,0-.3,0,0-.09.36-.06-.39.09.94.45,1.11.17-.66-.11-1.82-.21-1.31-.53a1.67,1.67,0,0,1-1.11-.18,5.05,5.05,0,0,1,.72-.24,5.32,5.32,0,0,0-.75-.3,8.45,8.45,0,0,1,3.87,0c.73-.08,1.52-.61,2.2-.19a2.72,2.72,0,0,0-1.09.31c.73,0,1.65-.38,2.2-.07a21.44,21.44,0,0,1-6,.51,19.66,19.66,0,0,0,5.7-.21,12.59,12.59,0,0,0,3.48-.14c.43,0,.5.2.93.24,1.39,0,4.52-.61,4.42.09.66.09.1-.2.54-.18s.65.11.57.3c-1.77.54-4.29.85-6.19,1.35.51.15,1.27.22,1.32.53,4.09,0,5.49-1.45,9.69-1.43-.64-.56,1.09-.81.12-1.32a2.51,2.51,0,0,0,.74-.06c-.23-.48-.56-.81.31-1.14,0-.1-.52,0-.56-.12.62,0,.49-.24.72-.36-.12-.09-.71,0-.75-.12-.83-1.32-2-2-3.67-3.4-1.45-.28-2.12-.83-3.54-1.12.45-.25-.91-.51-.41-.78-.42,0-.69,0-.74-.12.42,0,.69,0,.73-.12-.89.05-.35-.28-.38-.3-.54-.46-2.07-.83-2.45-1.37,2-.23,3.89.54,5.52.21.66.17,1.72.2,1.87.54-.58,0-1.1,0-1.1.24a27.88,27.88,0,0,0,4.45.46c.29.53,2.69.36,4.09.52,0,.12-.5.08-.36.24,1-.05,2.11-.05,3.23,0,.58,0,1,.06,1.84.08a6.85,6.85,0,0,1,1.27.09c0,.09.09.17.1.23s0,0,0,.05h0v-.21l0-.46.06-.8.08-.73c.06-.48.11-.85.19-1.23a4,4,0,0,1,.09-.48l.23-1v.05l0,.1-.05.19,0,.05-1.28,4.63h0l-.06,0s0,0,.06.05l.14.06.56.27c1.48.76,2.95,1.23,3,1.57,1.27.3,2.67.36,3.21.6-.37.31-1.37.43-1.12.88a6.17,6.17,0,0,0,1.95.32c.8,0,1.75,0,2.25.14,0,0,0-.06.08-.08l.08-.05v0s0,0,.06-.07l.26-.05a3.16,3.16,0,0,1,1.15,0c-.12.12-.55.14-.73.24.74.35.58.65,1.16,1,.6,0,1.53-.1,1.66.17-.33,0-.77-.17-.92,0,.59,0,.56.22,1.12.23,0-.4.73,0,1.1,0,.52-.14-.1-.3.34-.48,2.29-.06,4,1.09,5.68.5a6.92,6.92,0,0,0-1.37,0,32.35,32.35,0,0,0-4.53-1.23c.06-.08.26-.12.18-.24-.64,0-1,.16-1.65.18a2.29,2.29,0,0,0-1.3-.17c.74-.28-.57-.26-.57-.48.59-.09.51-.11.35-.36.37,0,.22-.16.73-.12,1.66.13,3.54.33,5.73.33a22.12,22.12,0,0,0-3.91-.7c.24-.54-.44-.7-1.52-1.07-.6-.07-.13.19-.73.12-.57-.6-2.33-1.06-1.93-1.79,2.29,0,2.23-.67,4.57-.62,0-.27.72-.33.9-.55-.06-.12-.38-.15-.57-.23.12-.17.55-.23.91-.31.55-.8-1.85-.6-1.9-1.19a48.91,48.91,0,0,0,5.15-.39c-.72,0-1-.44-.4-.6-1-.18-1.17-.66-2.26-.82-1.81.31-1.69,1-3.8,1.28a8.48,8.48,0,0,0-4-.74c-2,0-4.07,0-5-.48.25.1.41.19.38.29a6.46,6.46,0,0,1-2-.84c.13.31-1.16-.33-1-.11a.53.53,0,0,0,.1.14c.11.07.18.15.15.21a1.54,1.54,0,0,1-.3-.12h-.59c-.37,0-.84.08-1.42.15l-.94.1-.87.08c-.6,0-1.24.09-2,.11,0,.07,0,.17-.17.18-3.92,0-6.53.27-10.12.41,0,.07,0,.17-.17.18a21,21,0,0,0-2.21-.1c.14,0,.21,0,.18.11-2.84-.08-6.59.27-7.2-.62.27.07.45.06.55-.06-.53-.09-1.48-.28-.94-.54-.94.08-1.58-.27-1.13-.47-.06-.08-.27-.11-.19-.24-.6-.05-.39-.05-.74.06,0-.08-.09-.13-.19-.18.29,0,.64,0,.55-.12-1.25.06-.27-.27-.76-.41-.7,0-.43.37-1.46.3.42-.13-.07-.23,0-.42.12,0,.72.15.74,0-.47,0-.31-.22-.57-.3a2.7,2.7,0,0,0-.73.07c.66-.23-.95,0-.56-.3A15,15,0,0,0,404.3,24c.5.4,2.67.24,3.16.64a2.14,2.14,0,0,0-.54.13c.4,0,.47.21.75.29,2-.08,2.3.88,4.46.94,0-.32.95-.34,1.82-.25,0-.3.58-.23,1.28-.18-.43-.56,1.57-.64.87-1.09.25.08.69.08.73-.06-.14-.1-.9,0-.74-.18s.44-.06.73-.06c-.13-.63-2.26-.58-3-1,2.87-.35,4.27.51,6.64.33v.24c2.23.2,2.15-.79,4-.68a14.18,14.18,0,0,1,3.83-.8c-.17-.07,1.14-.19,1.26-.38,1.52-.06,1.54-.31,1.2-.65s-1-.68-.76-.87a4.44,4.44,0,0,1-1.66-.68c.68,0,.53-.11.17-.18h.7c-.07-.38.53-.41-.21-.6a7.36,7.36,0,0,1-4.22-.57c.29,0,.14-.16.55-.13.14-.27-.93-.13-.94-.35,1.27.08,1.43.53,2.6.65-.16-.17.25-.16.17-.31-.35,0-.4.07-.73.07.35-.12-.38-.18-.39-.36a8.18,8.18,0,0,1-1.47-.17,2.26,2.26,0,0,1-1.28.06c1.15,0-.31-.16.54-.24-1.58-.09-2-.25-3-.22.6-.09,1.05-.22,1.08-.49-.49,0-.36-.12-.56-.18-2.34-.11-3.31-.71-6.1-.81.72-.33,2.41-.14,4.21-.26.29-.18.8-.3.71-.6-2,.06-4.5-.41-6.62,0-1.24-.36-4.11.22-6.25.09-.84,0-2.84,0-3.29.38-2.6,0-5.33.18-8.63.22-.22-.15.55-.26-.19-.23-.94.31-3.1.13-4,.32,3.11,0,5.89.15,9,.13.05.09.31.1.38.18-2-.12-4.59.79-4.22.32-.18.08-1-.15-1.66-.11-.42.54-1.91,0-3.12.07.06.16-.71.06-.54.25s.72.16.75.35c-1.1.43-2.33.15-4,.2-.08-.08-.23-.1,0-.18-.44.05-1.75.19-1.66-.11.9-.12.32,0,.92.06.36-.22,0-.34-.57-.42.55-.12.5-.43,1.26-.49a1.65,1.65,0,0,1-.74-.11c.13-.14.7-.14.72-.31a9,9,0,0,1-2.39-.1c0,.31-1.14.21-1.47.18a2,2,0,0,1,1.28-.12c-.35-.27.73-.09.54-.31-.73-.08-2.71.67-3.67.14a9.74,9.74,0,0,0,2.93-.37c.54-.8-1.66-.55-2.8-.83-1.57.09-3.95-.24-5.15,0,.57.07,1.83,0,2,.29-.37.3-1.09-.15-1.28.12.82.08,1.15-.06,1.48.18-.24,0-.16.1-.36.12-.75-.07-1.6-.24-1.49-.41.07.18-.54-.15-.55.06.28,0,.28.19.38.3.91,0,1.5.06,1.67.29-1.33.32-2.43,0-3.47.38a3.46,3.46,0,0,0-1.66-.12c.33,0,.43.06.37.18-2.68-.24-4.22-.2-6.63-.26a11,11,0,0,1,1.83-.19c-.38-.1-1-.13-1.12-.3.61-.13,1.12-.23,1.09-.42a13.74,13.74,0,0,1,2.75-.14,3.53,3.53,0,0,0-1.84,0c0-.06-.16-.07-.19-.12.86-.32.46-.58.13-1.08,3.77-.33,6.91.37,10.66,0a38.9,38.9,0,0,0,4.8.27c-.07.15.34.13.2.3a16.39,16.39,0,0,1,4.24.22c.15-.41,1.56.13,2.2-.07.08.09.23.1,0,.18,1.39-.39,2.36.37,4.05.16-.79,0,.67-.33-.75-.3-.24.14.49.23,0,.24,0-.36-1.48-.28-2.05-.59-1,.34-2.05,0-3.49,0-.15-.11-.49-.48-.93-.29.74,0-.14.21-.17.3-1.06,0-2-.18-3-.23.32-.28.3-.18,1.1-.12,0-.23-.21-.17,0-.36a2.57,2.57,0,0,0-1.27.18c.24-.4-2.12-.14-2.78-.34q.06.2-.54.18c.06-.09.21-.1,0-.18-3.52,0-6.73.24-9.93.11-1.06.21-4.19.39-4.05-.22-3.85-.3-7.78,0-12-.18a16,16,0,0,1-4.41.14c.19,0-.38.14-.73.07-1.31-.29.91-.44,2-.43-1,0,0-.4.16-.54,2.05-.17,3.72-.16,5.5-.33.48,0,.56.17,1.11.17.77-.24,1.63.11,2.58,0,.54,0,.92-.3,1.45-.31s1.16.24,1.67.23c.31,0,.84-.11,1.1-.12,0,0-.12.12-.18.12.55,0,.81-.17,1.28-.19.08,0,.14.17.19.18A13.13,13.13,0,0,0,370.4,11c.54.17-.6.28.2.3,0-.2.82-.17,1.09-.31.54.33,2.07,0,1.85.29,1.25-.11,3.44-.27,4.59-.26-.21,0-.21-.09-.19-.18a13.86,13.86,0,0,0,2.56-.13c0,.06-.14.07-.17.12,2.07,0,3.84-.09,5.14,0a2.59,2.59,0,0,1,.55-.24.93.93,0,0,0,.91-.06c.38.11.23.35.75.23-.64-.16.71-.2,1.09-.24,0,.12.5.07.38.24.06.13-.53.07-.54.18,1.21,0,1.19-.2,1.26-.49-.44-.09-1.18-.09-1.66-.17-.33.34-2.32.15-2.76,0,.24,0,.16-.1.36-.12,0,.07,0,.17.19.18a10.85,10.85,0,0,1,3.67-.14c-.44-.23.34-.18.35-.42-1.45,0-2.91,0-4.23,0,.59.12-.53.18-.72.25a5.54,5.54,0,0,0-1.66-.17c.21,0,.2.09.19.17a14.59,14.59,0,0,0-3-.22c1.15,0,.61-.12,1.46-.19a3.81,3.81,0,0,0-1.84.07V9.53c-1.71.21-4.42-.17-6.61,0,0-.07,0-.17-.2-.17-1.91.23-4.75-.16-5.69.08-.09-.22.82-.31,1.28-.18-.15-.42-1.19-.09-1.66,0,0,0,0-.12,0-.12-.72.06-1,.33-1.82.37A24.71,24.71,0,0,0,363,9.32c.4.28-1.36,0-1.83.19,2,0-2.2.29-2.22-.11a4.32,4.32,0,0,0,1.1-.19c-1,0-.54-.06-.75-.29a6.61,6.61,0,0,1-1.48-.12c.1.2.84.17,1.12.3a2.47,2.47,0,0,0-.55.06c-.43-.07-.72-.37-1.11-.11,0-.11-.05-.19-.19-.24a40.73,40.73,0,0,1,6.8,0c1.65-.19,3.42.19,5.14-.14,0,.11.61,0,.56.17,2.28-.18,4.76.43,6.62,0-.52,0-1.26.06-1.29-.11.57,0,3.15-.21,2.59.23a8.88,8.88,0,0,1,1.46-.07c.27-.26-.95,0-.92-.18a10.24,10.24,0,0,1,3.31.17,57.49,57.49,0,0,1,8.1.19c.1-.31.38.14.75.12s-.19-.29.16-.3a2.86,2.86,0,0,0,.37-.06c.71-.06.66.14,1.11.17a5.92,5.92,0,0,1,1.83-.13c.16.45,1.48.16,2.22.17,3,0,7,.24,9.39.19-1.88-.16-2.5,0-4.06-.27-2.18.25-5-.09-7.36,0,0-.15-.3-.18-.38-.3.21-.09.69-.09.91-.18-.72-.13-2.66.25-3.87-.1-.09.2-.69.09-1.1.06-.58.42-3.34.41-4.4.33,0-.12,1.68,0,1.1-.13s-1.12,0-1.11-.17c.32,0,1.08.06,1.1-.07-.59-.08-1.78,0-1.49-.35-.77,0,.26.23-.54.24,0,0-.15-.07-.37-.06-.25-.27.32-.29.53-.42-.83-.16-.86.09-.91.18-.58-.15.47-.23,0-.36a14.75,14.75,0,0,0-2-.1.64.64,0,0,1,.37.11c-.33,0-.75.18-.92,0,.22,0,.52,0,.55-.06-1-.16-2.7,0-3.32-.29-.45.08.34.18-.18.24-1,.09-1-.2-1.66-.23-.1.09.23.31-.17.3-.65,0-1.77.11-1.67-.17.2,0,1.4-.06.92-.12a7.69,7.69,0,0,0-2.2.25c-.74-.07.12-.33-.56-.36-.26,0,0,.23-.36.24s-2.2-.35-1.29-.11c-.78,0-.93,0-2,0,0,.09.08.22-.17.24-3.09-.21-5.74.08-8.46-.08-.07.11.28.15,0,.18a6.3,6.3,0,0,0-2.57.08c0-.09.08-.14.18-.19a9.08,9.08,0,0,1-2.4-.1c.5-.24,1.45,0,1.64-.43-1.27,0-1.81.54-3.29.44-.25.13.48.22,0,.24a2,2,0,0,0-1.1.06c0-.2-.55-.22-.93-.29-1.46.23-2.88-.17-4.22.2a76.1,76.1,0,0,0-9.56.16c-.17-.14-1-.06-.93-.29-1,.22-1.64-.14-2.39.13.23,0,.44,0,.38.12-.44,0-.49,0-1.28.07,0-.1,0-.21-.38-.18-.58.39-2.06,0-2.94,0,0,.12.25.12.37.18-.71,0-2,.08-2.22-.23.47-.07.66.25.93.06-.26,0-.22-.14-.38-.18a33.29,33.29,0,0,1-6.06.21c-.47,0-.69.18-.91.18a9.37,9.37,0,0,0-2-.17,4.68,4.68,0,0,0-.73,0,9,9,0,0,1-2.58-.11c-.09-.15,1.43-.09.91-.18a6.59,6.59,0,0,1-1.47,0c.15.31-.95.25-1.28.12a5.39,5.39,0,0,0,1.64-.3c-1.14.1-3.26.37-3.14-.17,0,.06-.31.08-.36,0,.74-.15.43-.28,1.08-.42-2.35.52-4.3-.32-6.41.45-.05-.12.2-.14.17-.25-.57,0-.52.2-1.28.13,0-.11-.22-.13-.2-.24a6.74,6.74,0,0,0-1.28.13c.81,0,1.17.09,1.3.29a13.05,13.05,0,0,1-3-.11c.74.06.55-.18,1.29-.12-.19-.14-.08-.38-.76-.36,0,.09.08.22-.17.24.11-.27-2.3-.34-3.33-.34-.18.22.47.17.39.35a5,5,0,0,0-1.11,0c.38-.15.26-.13.17-.36-.59,0-.24.2-.73.18,0-.23-1-.12-1.11-.29-.8.2-1,0-.93-.12a10.39,10.39,0,0,0-1.46.31c-.31-.12,0-.08,0-.24A3.29,3.29,0,0,1,294.41,6c-.28.07-.44.18-.72.25-.33-.12-.75,0-.19-.18-2-.11-2.68.57-3.66.43-.1.45-.95.28-1.65.13-.25.14.48.22,0,.24a4.68,4.68,0,0,0-1.66,0c-.16-.19.29-.19.36-.3-.41.1-1,0-1.1.06a1.11,1.11,0,0,1,.56.18,7.13,7.13,0,0,1-1.1.06V6.68c-1.54.34-3.73.05-4.4.32-.59.06-.39-.15-.74-.17,0,.08.09.13.19.18-.45.14-2.64-.31-1.47,0-.88,0-1.14-.25-1.66-.11.43,0,.43.16,0,.18.26-.09.14-.19-.37-.18a3.05,3.05,0,0,1-.91.19c.48-.17-.86-.11-1.11-.06.14,0,.36,0,.37.06a5.08,5.08,0,0,1-1.65,0c.1-.09.7,0,.73-.12a4.93,4.93,0,0,0-1.47.12c-.3-.35-1.82.28-2-.17,1.48.23,2.41-.55,3.31-.07,0-.34.64-.14,1.46-.25-.22-.19.28-.15.35-.24-.85,0-.52.07-.73.12s-.68,0-.56-.18c.22,0,.53,0,.55-.06-.76,0-1.14,0-1.29-.17-1,.14-1.64,0-3.68.07-.34.11.26.19-.36.24-2.4-.26-4.57.28-6.43.16-.37.18.36.34-.53.36-.46-.08-.34-.21-.2-.36-1.68.25-2.79-.11-4.6,0-.74.52-3.29,0-4.4.45a6.24,6.24,0,0,1,2.4.1c-.68.23-2.84.3-2.58-.1-1,.22-1.88-.24-2.21.13-.22-.38-2.31-.35-3.5-.22.17,0-.28-.07-.74-.06-2.44.06-5.44,0-7.72.28,0-.09,0-.2-.37-.17,0,.15,0,.31-.54.3-.12-.13.51-.19-.19-.18a1.29,1.29,0,0,1-.92.07c-.4.09.24.14-.18.18a1.77,1.77,0,0,1-.74-.12c0-.09.47,0,.36-.18-.67.13-.83.08-1.64.19,0,.21.62,0,.74.24-3.92.78-8.7.59-12.84.74-.21-.16,1.13-.11.54-.19a9.26,9.26,0,0,1-3.49.09c-.68,0-.7.21-1.1.31-.65-.15-2.55.28-3.31-.1-.1.22-.91,0-1.28.19,0-.22-.35-.17-.56-.06-.1-.34-1-.07-1.3-.29a2.26,2.26,0,0,1-1.47.07c-.4.09.24.15-.17.18-.91-.13-2.24.19-2.77-.22a7.71,7.71,0,0,1-3.51,0c-.12.34-2.19.29-2.2.14-.67.16-1.39.31-2.18.44.09-.09.26-.16.35-.25-3.39,0-6.07.33-10.31.09,0,.11-.13.16-.36.19-1.27-.45-4.18.4-4.25-.32-.93,0-.07.21-.72.3a35.07,35.07,0,0,1-4.79-.07c-1.15.18-1.68.12-3.12.27-.06-.14.53-.07.55-.18a15.8,15.8,0,0,1-4.06-.08c.08.28-1,.21-1.08.43a7.11,7.11,0,0,1,2.78.33c-.79.12-1.15-.21-1.48,0,1.82.38,2.84-.09,5-.06,0,.09-.08.14-.17.19a8.4,8.4,0,0,0,2.2-.15c3.51.36,7.71-.37,11.05.08a28.55,28.55,0,0,1,4.77-.34c-.28.28-2.11.09-2.37.38.91,0,4.56-.22,4.06.2,0-.16-.12-.35.35-.36s.38.12.74.11c.32-.33,3.37-.17,4.41-.15-.14,0-.21,0-.19-.12.35.11,1.56-.23,2.21,0-.42,0-.69,0-.73.13.77.21.62-.25,1.46-.19.07.14-.52.07-.54.18,1.55-.09,4.33,0,5.7-.1.22-.2-.6-.05-.38-.24.27,0,1-.08.92,0s-.29.11-.35.18c2.83,0,5.57-.12,9-.06.47.28,2.68-.07,3.68,0,1.32.06,3.48-.09,5.33-.16,3-.1,6,.09,8.46-.23,0,.09,0,.21.37.18,0-.09-.07-.22.18-.24a4.6,4.6,0,0,1,1.85.35,3.24,3.24,0,0,1,.72-.31c-.32,0-.91.18-1.1,0,.35,0,.32-.17.91-.13.77.38.34.13,1.49.24-.32,0-.47,0-.55.12.83-.19,2.14.12,2.94-.08-1-.09-1.26,0-2-.17a14.09,14.09,0,0,0,2-.13c.18.11-.55.21,0,.24.85-.25,2.31.4,3.5.1-.37.06-1-.09-.56-.11a7,7,0,0,1,.93.11c.68-.41,2-.05,2.93-.25a.89.89,0,0,1,.56.23,8.44,8.44,0,0,1,2.38-.25c.1.19-.84,0-.91.18a18.07,18.07,0,0,0,3.29-.37c.43,0,.22.17.56.18-.31-.26,1.08-.33,2-.37-.05.21,0,.3-.17.36a2.78,2.78,0,0,0-1.1.06c.53.12-.53.22-.53.36-.38,0-.4-.09-.19-.17-1.36.14-3.06,0-4.41.14,0-.07.32-.14,0-.18.29.21-.62,0-.55.18.54.12-.41.26-.72.3.2-.08.19-.14-.19-.17-.4.37-1.38,0-1.83.19-.43-.09.35-.2-.38-.18v.24c-.66,0-2.58.06-3.12.07s.53.3-.35.25c.11-.28-2,.12-2.23-.29-1.69.2-2.4-.08-3.85.2a2.31,2.31,0,0,0-1.29-.05c.3-.05.8.11.37.12-2.72-.26-6.34-.07-9.21-.19a.63.63,0,0,1,.37.12h-.73c0-.08.08-.13.17-.18-.63.16-1.59-.21-2-.1.52.06-.3.07-.37,0-.12.16,0,.13-.54.24.27,0,.68,0,.74.06a37.87,37.87,0,0,1-5.53,0c-.57.12.63.2,0,.3-.58-.21-1.41.3-1.66,0,.15-.15,1.89-.11,1.09-.36A5.28,5.28,0,0,1,219,9.8c.18.59-2.31.34-3.1.63a6.17,6.17,0,0,0-2.4-.11,7.25,7.25,0,0,1,3,.52c-.21,0-.52,0-.55.07,1,.09.65-.27,1.65-.19,0-.23-1.08-.09-1.12-.3a30.27,30.27,0,0,1,3.87,0c-.6-.05-.25.2-.73.18-.17-.05-1-.16-1.11-.05-.24.32-2.31.55-3.48.26-.53.35-1.62,0-1.84,0,.5.05-.14.22-.35.24,0-.28-1.89-.19-.92.06-.76,0-.92-.14-.93-.23a14.81,14.81,0,0,0-1.64.43c0-.15.34-.19-.2-.23s-.1.12-.35.18-.22-.05-.19-.12c-.65.44-2.23-.19-2.58,0,.22,0,.44,0,.37.12a5.43,5.43,0,0,1-2-.23c-.27.28-.64-.09-1.29,0-.24.4-3.36.47-3.12.15a3.07,3.07,0,0,1-1.84.13c-.22.32,1.25.07,1.48.23-.51.15-2,0-2.56.14-.47-.16-.81-.27-.77-.47-.49,0-.54.22-.9.31.22,0,.52,0,.56,0-.66.23-2.09.15-2-.22.45,0,.59-.27.35-.24-.24.26-1.45.21-1.81.43.82.09.55-.18,1.28-.13.24.19-.17.25.38.36a15.51,15.51,0,0,0-2.39.08c0-.12.5-.08.36-.24-.69-.06-.35.2-.72.24s-.84-.08-.94-.23a23.68,23.68,0,0,1-4.77.23c-.25.26,1.1,0,1.11.17-2,.34-4.18.29-6.22.6,0-.09.29-.11.35-.19-1.1.28-1.92,0-2.19.26-2.71-.26-8.63,0-11.06-.3-1.41,0-3.23.42-4.24,0-.72.25-2.51,0-3.12.22.28,0,0,.1-.18.12-2.93-.22-4.34.36-7.72.21.12.31,2.35-.11,2.05.34,1.82,0,2.37.21,4.06.19-.22,0-.53,0-.55.07.14,0,.36,0,.37,0a3.45,3.45,0,0,0-1.65.2,22.08,22.08,0,0,1,4.24.07c-.33.27-2.74,0-2.94.16,1.14.09,2.17.23,3.51.26-.58.19.56,0,.39.23a11.27,11.27,0,0,1-1.84.08c.22,0,.64.17.19.18a5,5,0,0,0-1.28,0c0-.08.73-.19.17-.25a5.1,5.1,0,0,1-2.57.15c0,.12.21.13.19.24a4.12,4.12,0,0,0-1.1.08v-.18a8.93,8.93,0,0,0-2.18.44,10.89,10.89,0,0,0-3.13.1c1,.08,2.29-.24,3,.14,2.48,0,5.42,0,7-.08,1-.08,2.44.07,3.31,0a6.91,6.91,0,0,1,2.77.09c-.56-.12-1.24.11-1.84,0-.41.09.24.14-.18.18-9.08-.28-19,1.07-29,1,.1.55-2.75.37-3.67.24-.45.34-1.65,0-1.83.27.46.13,1.75,0,1.86.21-.1.11.24.35-.16.36-2.23.15-3.54-.33-4.61-.05,1.16,0,2.1.42,3.89.36-.26,0-.24.5,0,.3-.21-.41.86-.08,1.27-.32.64,0,.82.17.95.35-.54.27-2.07.24-2.74.46,0,.25.67.34,1.3.22,2.83.43,7.58-.2,10.67-.1.37,0,.24.16.74.11,1.63-.08,4.28-.44,5.89,0a30.21,30.21,0,0,1,3.31,0c.06-.16.43-.22,1.1-.2-.3.13,0,.08,0,.24a6.62,6.62,0,0,0-1.28.14c.24.08,1,0,.75.23-1.24,0-1.64.28-2.74.34.35,0,.34.16.92.11.77-.36,2.71-.35,3.09-.82.41,0,.69.3.39.41,1.42.3,3.54,0,5,.18,0,.22-.68.23-.9.37,1.33,0-.19.16-.17.3a37.47,37.47,0,0,1,4-.28c9.25.61,19.88-.23,28.71.06,2.61-.18,5.38-.22,7.15-.31a14.13,14.13,0,0,1,4.22-.27,41,41,0,0,1,4.22-.21c-1.14,0,.06.08.19.18-1.54,0-2.62-.06-2.93.26a2.16,2.16,0,0,1-.55-.12c.14,0,.36,0,.36-.06-1.21-.08.28.39-.71.43-.15-.32-1.28.07-1.12-.35.57,0,.75.13.91-.07-1.65,0-3.19.08-4,.15a17.07,17.07,0,0,0,2.76,0c.19.08.19.22.38.3,1,.13,1.87-.07,2.41.22-2.52.22-2-.19-3.69-.15.1,0,.21,0,0,.06-1.17.05-1.71,0-2.75.08-.42-.09-1.7-.46-1.66,0,.72-.06,1.6-.08,1.85.17,1.59.1,2.47-.37,3.49-.15a3.54,3.54,0,0,0-1.64.31c.79,0,.58-.25,1.46-.19,0,.09-.3.1-.36.18a6.33,6.33,0,0,1,2.76,0c-1.52.12-2.9.16-4,.27,0-.08,0-.23-.19-.12v.12c1.66.25,2.36-.25,3.5.16a13.63,13.63,0,0,1-2.21,0c-.3.33-2.11.4-3.11.33,2.56.41,4.51-.33,6.79-.42.17.22-1.28.23-.53.43,2.51-.37,6,.15,8.28.11a35.54,35.54,0,0,1-5.88.23c-.57,0,.48.17-.17.18a43.92,43.92,0,0,0-6.8.18c.07-.09.22-.11,0-.18-1.09.44-3.2.12-4.4.27.15,0,.37,0,.37.06a58.34,58.34,0,0,0-9,.26v-.24a65.14,65.14,0,0,1-10.28.28c0,.13-.14.2-.54.19-8-.08-17.18.65-24.63.53.29,0,.64,0,.56.11a87.63,87.63,0,0,0-9.57-.05c-.39-.09-.57-.25-.93-.35,0,.26.27.14.39.42a20.61,20.61,0,0,0-5-.05v-.18a11,11,0,0,1-3.67.18c.21,0,.2.09.19.17-1,.07-1.75.11-1.84-.09a2.71,2.71,0,0,1-1.48-.16c-.71.07,0,.3-.35.37-7-.17-16.56.08-24.27.36,6.3-.05,12.61,0,19.12-.34,0,.17,1.2-.09.93.16,3.55-.26,8.21.17,11.58-.17,0,.07,0,.17.19.17-.16-.22.38-.24.72-.31.39.26,1.71,0,2.59.26.24-.26,2.49,0,2.94,0,.19-.08.17-.22.54-.24.12.22.9,0,1.3.16a8.19,8.19,0,0,1,2.38-.21c.17.36,1.27.16,2.21.15.41-.1-.23-.15.18-.19,4.69.09,9.22-.1,14.35.07-.14,0-.36,0-.36.06.56,0,.34-.17.91-.13,0,.16.31.12,0,.24a18.07,18.07,0,0,1,2.94,0c.2-.19-.29-.14-.37-.23.44,0,.39-.12.91-.07,0,.12-.5.08-.36.24.87.07.61-.2,1.47-.13-.1.28.93,0,1.48.22.36-.22.43-.23.35-.36a1.85,1.85,0,0,0,1.1-.07v.18c.36-.06,1.81-.31,2,0a12.07,12.07,0,0,1-2.57,0c.1.49,3.62-.13,4.25.32-4.08.12-7.19,0-11.4.06-.07.11.28.15,0,.18s-1.08.09-1.11-.05c.21-.15.77.14.73-.12-.92,0-2.65,0-3.12.09.36,0,1.19.16.56.3-3.26-.25-7.2,0-10.11,0-4.21,0-8.46-.08-13.07-.12V24c-1.7.31-3.23-.08-4.59.25-.51-.05-1-.09-1.12-.28-.32,0-1.08-.06-1.1.08.81,0,1.25.05,1.31.27-1,.05-3.74.05-5,0-1.71.25-4.37.1-5.87.34,1.07.16,3.49-.29,3.7.3-1.17-.13-2,.3-3.31.11.06.21-.35.21-1.09.14-.83.49-3.65,0-5.13.39a8.7,8.7,0,0,0-1.67-.27c-.1.19.66.07.2.23.32,0,1.07-.09,1.1.05-4,.17-6.82.37-10.27.48.06.56-2,.15-2.55.3.84.26-1.52.08-2.2.1-1.67.06-3.48.27-4.39.4.85.27,1.84-.16,2.94,0,0,.14-.17.26-.53.31-.15-.09-1.23,0-1.09.21a9.92,9.92,0,0,1,2.4.07,8.56,8.56,0,0,1-3.66.26,20.33,20.33,0,0,1-3.66.32c.34.32-1.39.27-2.55.31-.89.29,0,.41-1.44.51.48.11.84-.08,1.11,0a2.45,2.45,0,0,1-2,.59c0-.08.29-.1.35-.19a8.55,8.55,0,0,0-2.18.36c-.85-.13-.67,0-1.28.1-1,.08-2.48-.1-2.92.25.69.12,1.59-.13,1.85.19-.69.19-1.22-.13-1.28.1.54.15,2.32-.15,2.4.17l-1.1,0c0,.19,1,.15.39.35.27,0,1,.05.92-.08-.41,0-.59,0-.57-.17.47,0,1.47,0,2.21,0a27.56,27.56,0,0,1-5.85.45,1,1,0,0,1-.53.32c.85,0,1.7,0,.73-.14a1.74,1.74,0,0,1,1.11.21c-1.3.32-1-.05-2.2.06C80.51,31.51,80.78,31.61,80.24,31.78ZM174.38,9.11c.14-.21.65-.08.93,0C175.27,9.24,174.5,9.14,174.38,9.11Zm28.89-.63,1.64-.19c-.09.05-.19.1-.17.18a2.41,2.41,0,0,0-1.1.13C203.44,8.59,203.51,8.48,203.27,8.48ZM274,6.26c0,.1.14.15.37.17,0,.14-.45.14-.91.13.31-.13-.14-.12.17-.24-.34,0-1.1.08-.92-.12A6,6,0,0,0,274,6.26Zm109.61,8.11c0-.15.32.09.74,0v.18a2.92,2.92,0,0,1-.73-.06C383.74,14.44,383.84,14.39,383.62,14.37Zm18,23c.87.1,2-.24,2.21,0C403.37,37.53,401.77,37.7,401.63,37.39ZM225.34,34.48a20.41,20.41,0,0,1,2.94,0A12.56,12.56,0,0,1,225.34,34.48ZM82.23,31.36c0-.12.5-.09.35-.25.58,0,.66.09,1.29,0,0,.07-.33.06-.55.07,0,.07.05.11.2.12A3.1,3.1,0,0,1,82.23,31.36ZM90,29.12A3,3,0,0,1,91.25,29c-.07.17-.68.19-1.08.27C90.19,29.16,90.12,29.13,90,29.12Zm9.42-2c.19-.14,1.75-.34,1.65,0C100.3,27,100.31,27.09,99.4,27.1Zm21.29,5.6c-.71-.08,1.48-.28,1.29,0A6.91,6.91,0,0,0,120.69,32.7Zm4.79.22c-.16-.12.93-.14.36-.19.13-.08,1.79-.18,1.66,0A10.14,10.14,0,0,0,125.48,32.92Zm35.84-20.18c0-.19,1.2-.16,1.47-.08C162.52,12.88,161.6,12.74,161.32,12.74Zm8.13,10.76c-.08-.25.79-.06,1.1-.07C170.55,23.6,169.69,23.58,169.45,23.5Zm21.5-.39c.18.23-1,.05-1.1.19.13.08.49,0,.92.05,1.85-.63,5.39-.24,8.08-.31,2.21-.06,4.09-.35,5.69-.29.12.06.42.06.37.18a13.34,13.34,0,0,1,2.21,0c.26.2-.2.16.74.12-.34.12,0,.15,0,.3-.5,0-.36-.12-.56-.18-.27.1-.61.17-.72.31-.37,0-.43-.18-.75-.24s-.35.17-.73.19c.38.19,1.73,0,2.22.28-.9,0-1.12-.15-2-.1.44.09,1.11.11,1.66.16,1.57-.22,1.33-.79,3.08-.86-.11-.14-.7-.13-1.11-.17,1.35-.31,2.72,0,3.66-.27.25.06.69.05.75.18.51-.05,1.64-.3,1.83-.08.35,0,.12-.2.55-.18,1.24.38,3.7-.19,5,.08a14,14,0,0,1,3.85-.14c1-.47,4.36-.3,5.7,0,1.42,0,1.26-.19,2.57-.19-.4,0-1.15-.22-1.3-.12,0-.22.9-.19,2.2-.19a1.27,1.27,0,0,1-.37.06c1.87.1,5.59-.6,7.73.14a7.69,7.69,0,0,0-1.83.13c.43-.1,2.52.17,2.75-.2a1.31,1.31,0,0,1,.93.18c-.06.14-.1.28-.72.24-.07.14.83,0,.55.18-1.19,0-1.89-.13-3.13-.11a9.88,9.88,0,0,0,2.4.17,39.92,39.92,0,0,1-7.34.28c0,.28,1.12.19,1.31.42-2-.12-3.26.26-4.59.15v-.12c-.09-.13.26-.12.55-.13-.34-.18-1,0-.72.25-.61,0-.92.1-1.66.07,0-.13.46-.14.92-.13a7.15,7.15,0,0,0-2.75.2c-.65.09-.12-.21-.56-.18a30.87,30.87,0,0,1-5.52,0c-.47.08-.57.13-.35.3-.66,0-1,0-1.12-.17a6.3,6.3,0,0,1-2.76,0c-.65,0,.4.19-.17.18s-.23,0-.19-.12c-.69,0-.54.26-1.46.19a.51.51,0,0,0,.15-.54c-.4,0-.06.25-.16.36-.79.06-.72-.16-1.3-.17.28.26-.91.68-1.46.25a3.09,3.09,0,0,1,1.11.11c0-.15-.35-.18,0-.3a4.57,4.57,0,0,1-1.84,0c-.07.15-.51.33,0,.54-.58-.08-1.29-.13-1.85-.22,0-.16.61-.13,1.1-.13.32,0-.29-.22-.38-.3-.41,0,.23.09-.18.18a9.74,9.74,0,0,0-1.29-.05c-.31-.11,0-.07,0-.24-1.15.19-.59.6-1.81.56a.82.82,0,0,0,.56.11c-2,.53-5-.17-6.61.24-.59-.13-.25-.19-.92-.06-.37-.3.41-.41,1.07-.54.09.12-.12.16-.17.24a11.38,11.38,0,0,0,3.49,0c-1.64,0-2.69-.2-4-.21.19-.19.07-.16-.2-.3-.63.07.51.35-.16.42-.29-.16-1.54.13-2.4-.1-.26,0,0,.11.19.12-.29.16-.68-.17-1.29-.11a2.27,2.27,0,0,0,.55.12c-.11.18-.39-.06-.73,0,0,.06.23.05.37.06-.06.16-.93.06-1.09.19-.3-.12-1-.29-1.29-.05a72.74,72.74,0,0,0-7.56-.23v-.18a46.38,46.38,0,0,1-5.14.17c1.29-.46,3.53-.15,5.51-.23A22.7,22.7,0,0,1,191,23.11Zm-14.14.5c1.21-.47,3.68-.1,5.5-.24C181.15,23.75,178.26,23.57,176.81,23.61Zm10.44,9.73a8.79,8.79,0,0,1,2.37-.2A6,6,0,0,1,187.25,33.34Zm19.5-10.54c-.07-.16.24-.2.72-.19v.18Zm1.9,12.34a7,7,0,0,1,1.84,0A6.65,6.65,0,0,1,208.65,35.14Zm.16-11.58c.53,0,.45.34.2.42C208.31,23.93,208.87,23.74,208.81,23.56Zm.55.06c0-.07.33-.06.55-.07-.14.17.27.15.2.3C209.62,23.85,209.63,23.69,209.36,23.62Zm.71,10.43c.14-.14,1.22-.21,1.1.05A7.19,7.19,0,0,1,210.07,34.05Zm5.72.62a3.7,3.7,0,0,0,1.29,0C217.53,34.73,215.68,35,215.79,34.67Zm-.28-13.08c.09-.21.88-.1,1.29-.07C216.64,21.75,216.06,21.57,215.51,21.59Zm1.05,13.62c0-.25,1.43,0,1.64-.2.65,0-.32.27.2.24C218,35.29,217.19,35.23,216.56,35.21Zm2.07-24.92c.05-.13.5-.12.54-.25.29,0,.17.19.74.12C219.9,10.33,219.15,10.27,218.63,10.29Zm1.85.1a18.47,18.47,0,0,1,2.39-.07A7,7,0,0,1,220.48,10.39Zm.48-1.5c.47.13,1-.06,1.29,0S220.67,9.11,221,8.89Zm.25,1.32a1.37,1.37,0,0,1,1.09-.13A2.11,2.11,0,0,1,221.21,10.21Zm2.94,0a3.06,3.06,0,0,1,1.47-.13c0,.13-.65,0-.92.06,0,.14.66,0,.92.06A3.28,3.28,0,0,1,224.15,10.25Zm6.06-.4c.16-.3,1.48,0,1.83-.13C231.63,10,231,9.75,230.21,9.85Zm.74.24a4.62,4.62,0,0,1,1.66,0c.08.14-.84,0-.54.18A7.82,7.82,0,0,0,231,10.09Zm1.12,11.57a30.45,30.45,0,0,1,3.84-.38c-.07.11-.84,0-.54.24C234,21.49,233.24,21.64,232.07,21.66Zm.16-11.82c.37-.09,1.94-.37,2.39,0A12.79,12.79,0,0,0,232.23,9.84Zm.94.47a1,1,0,0,1,.91-.18A1.29,1.29,0,0,1,233.17,10.31Zm.91-.24c.63-.1,1.8,0,2.76-.08-.36.31-1.85-.05-1.83.31a3.71,3.71,0,0,1-.74-.05C234.58,10.19,234.91,10,234.08,10.07Zm5.24,24.57c-.2-.2.56-.1.91-.13C240.37,34.72,239.6,34.73,239.32,34.64Zm-.64-24.54c1.42-.12,3.31,0,5.51-.21-.15-.26-.88.06-1.29-.11.06-.2,1.06-.1,1.65-.13.38.21-.25.29,0,.54A52.16,52.16,0,0,1,238.68,10.1ZM243,22.44c0-.3,1.1-.25,2-.26C244.85,22.49,243.66,22.44,243,22.44Zm2.37-.5c0-.3,2.88,0,.73-.06A2.41,2.41,0,0,1,245.33,21.94ZM247,9.75c-.16-.23.86-.08,1.28-.12C248,9.8,247.74,9.7,247,9.75Zm1.48.17c0-.16.47-.2.9-.24-.14.05-.19.14-.17.24Zm4.38-.68c.05-.05.67-.21.73-.06.18,0,.14-.08.18-.12.54,0,.21.08.2.23C253.36,9.34,253.37,9.19,252.81,9.24Zm1.84,0c.11,0,.22-.11,0-.12,0-.13.65,0,.91-.06A1.29,1.29,0,0,1,254.65,9.29ZM259,8.73c.15-.21.74,0,1.28-.13C260.48,8.83,259.46,8.68,259,8.73Zm.45-2c.72.06,1.43.13,1.31.47C260.42,7,259.62,7,259.49,6.69ZM260,8.42c.26-.09,1.23-.2.17-.24.24-.26,1.17,0,1.83-.07A8,8,0,0,1,260,8.42Zm2.17,26.4c.31-.13-.14-.12.17-.24a16.3,16.3,0,0,0,2.58.1A11.94,11.94,0,0,1,262.12,34.82ZM261.17,7.1c-.23-.26,1.49-.27,1.29,0C261.8,7.05,261.58,7.23,261.17,7.1Zm.44,1.44c0-.19,1.19-.15,1.47-.07A13,13,0,0,1,261.61,8.54Zm3.63,26.2c-.18-.22,1-.11,1.1-.06A1.88,1.88,0,0,1,265.24,34.74Zm-.72-26.82c0-.18.65-.21.91-.12A1.92,1.92,0,0,1,264.52,7.92Zm3.66-.5c1.23,0,2.21-.22,3.12-.13.14.18-.31.18-.17.36-.29-.11-1.26,0-1.11-.24C269.76,7.63,268.83,7.43,268.18,7.42Zm.37.06c.31.1.16.35-.54.3.54-.36-.82,0-.93-.29A14.56,14.56,0,0,0,268.55,7.48Zm2-1.15c.48-.18.71,0,1.28,0A2.52,2.52,0,0,1,270.52,6.33Zm12.77,29.11c-.06-.1.17-.11.17-.18.6,0,.79.1,1.48.05C284.86,35.5,283.68,35.53,283.29,35.44Zm.52-28c.43-.21,1.17,0,1.46-.25a6.21,6.21,0,0,0,2,0v.31C286.3,7.44,285,7.59,283.81,7.47Zm2.6,27.89c.67.1.89,0,1.47.06C287.83,35.61,286.32,35.58,286.41,35.36Zm1.08-28a5,5,0,0,1,2.75-.07A4.36,4.36,0,0,1,293,7c-.47.17-1.76,0-2,.43C289.45,7.35,288.21,7.45,287.49,7.33Zm.4.78c0-.17,1-.14,1.29-.06-.11.16-.5.23-1.1.24C288.1,8.21,288.11,8.12,287.89,8.11Zm1.66.12c.11-.22.73,0,1.47-.07,0,.11.23.12.19.24C290.62,8.35,290,8.32,289.55,8.23Zm3,28.49a3.66,3.66,0,0,1,1.29-.07C293.65,36.88,293.2,36.66,292.54,36.72ZM291.31,6.54c0-.14.78,0,1.1-.07-.39.14,0,.13.56.12C292.76,6.83,291.84,6.56,291.31,6.54Zm1,.89V7.25h.92C293.26,7.43,292.59,7.38,292.27,7.43Zm1.93,29.4a2.43,2.43,0,0,1,1.1-.13A1.32,1.32,0,0,1,294.2,36.83Zm.51-.9c0-.12.69,0,.92,0C295.44,36.22,294.91,36,294.71,35.93Zm1.46-.25c0-.15.61-.12,1.1-.13C297.33,35.75,296.47,35.78,296.17,35.68Zm1.85.17c-.21,0-.11-.06,0-.06,0-.16-.72,0-.57-.24.45,0,.4-.11.92-.06a.63.63,0,0,0,.37.12C298.73,35.76,298,35.7,298,35.85Zm-.28-29.46c0,.07.34.05.55.06s-.54.2,0,.24c-.18.09-.76-.19-.94-.3.65,0,.45-.17,1.1-.06C298.42,6.41,298,6.38,297.74,6.39Zm1.81,30.77c-.05-.19,1-.27.92,0A1.79,1.79,0,0,1,299.55,37.16Zm.13-1.26c-.1-.18.48-.16.53-.3.25,0,.35.13.38.24A3.24,3.24,0,0,1,299.68,35.9Zm1.21-29c.09-.05.18-.1.17-.19.22,0,.47.11.19.12.13.06.43.06.38.18s-.33-.07-.37,0C301.06,7,301.13,6.85,300.89,6.86Zm1.27-.25c.13.23.17.25-.16.42C301.72,6.91,301.4,6.62,302.16,6.61Zm2.33,29.93c0-.07-.05-.1-.19-.12.41-.12.35.13,1.1,0-.06.1.15.11.37.12C305.41,36.69,305.09,36.36,304.49,36.54Zm.89-27.9c1.38-.3,4.76-.2,6.06-.33C310.91,8.69,307.28,8.57,305.38,8.64Zm2-.43V8a4.38,4.38,0,0,1,1.1.05C308.47,8.24,307.88,8.2,307.39,8.21ZM308.67,8V7.84c.35,0,.79,0,.74.18Zm.87-1c0-.07.18,0,.18,0,.63-.28.15.16.74.11,0,.08-.45,0-.73.07C309.74,7.15,309.76,7.07,309.54,7.06Zm3.55,1.24c0-.21,1-.11,1.46-.19C314.32,8.39,313.67,8.18,313.09,8.3Zm8.42,30.33a2.59,2.59,0,0,1,1.28-.07C322.72,38.7,321.89,38.59,321.51,38.63ZM338.32,9.2c1.53.41.51.68-1.62.61a4,4,0,0,0,.92.12c.1.18-.84.05-.91.18-.25,0-.16-.15-.19-.24-1.79.07-1.92.1-3.86.14-.26-.23-.93,0-1.3-.23-.5.05.57.13,0,.24a14.36,14.36,0,0,0-2.58-.11c0,.17,1.2-.08.93.17a7.86,7.86,0,0,0-2.2.08c-.06-.14,0-.24.17-.31-.49,0-.6.09-.54.25a2.44,2.44,0,0,1-1.48-.24c.95-.45,4.28,0,5.5-.32,2.19.14,4.16.09,6.44.15,0-.11-.63,0-.74-.12s1.12-.12,1.1,0C338.49,9.5,338.52,9.45,338.32,9.2ZM328.19,40a1.81,1.81,0,0,1,1.1-.13A2.41,2.41,0,0,1,328.19,40Zm.58.41c-.16-.23.87-.23.73,0ZM328.56,36c.33-.11,2-.15,1.66.18A7.54,7.54,0,0,0,328.56,36Zm.92,3.9c1-.28,2.69,0,3.67-.08-.31.08-.49.2-.53.36a17,17,0,0,0-2.4-.1C330.06,40,330.06,39.85,329.48,39.91Zm-.28-29.28c.13-.14,1,0,1.46-.07C330.34,10.85,330,10.64,329.2,10.63Zm1.64,26.93c.14-.05.19-.13.17-.24.57,0,.36.16.93.12C331.92,37.59,331.32,37.56,330.84,37.56Zm.52-.54v-.18a9.4,9.4,0,0,1,2.39.11C333,37.1,332.25,36.9,331.36,37Zm2.39-.13c1.54-.19,2.78.16,4.6,0-.18.14-.06.12-.17.36a6.64,6.64,0,0,0-2.94,0c-.33,0-.43-.1-.38-.24-.54.06-.21.09-.18.24C334.15,37.16,334.24,36.93,333.75,36.89Zm-.67-25.74c0-.27.56,0,1.1-.07A2,2,0,0,1,333.08,11.15ZM335,12.82a64.35,64.35,0,0,1,7.35-.1c.46-.06-.16-.26-.56-.23.18-.17.78,0,1.1,0,0,.11-.22.13-.17.24s.9,0,1.29,0c-2.48.6-5,.16-8.82.23C335.2,12.91,335.21,12.83,335,12.82Zm.2-3.48a7.23,7.23,0,0,1,1.1-.13c0,.11.23.13.19.24C335.76,9.51,335.93,9.27,335.2,9.34Zm3.53,27.82c0-.23.79-.22,1.46-.24,0,.1-.22.12-.17.24C339.6,37,339.3,37.18,338.73,37.16ZM339.28,10c.05-.14.28-.23.16-.42,1,0,1.46.17,2.59.28A12.75,12.75,0,0,1,339.28,10Zm5.64-1.11H344a83.68,83.68,0,0,1,10.67,0c.2,0,.12-.12.36-.12.43,0,.76.07,1.11.11,0,.19-.91.11-1.47.13,0,.09,0,.17.2.18-1.8.13-5,0-7.71.34a5.35,5.35,0,0,1-1.49-.29c-.53.05.12.19,0,.3-.47,0-.86-.23-1.11-.06-.54-.05-.21-.09-.19-.24a13.3,13.3,0,0,1-2.2.13c-.18.21.57.09.92.12a5.67,5.67,0,0,1-2.39,0c-.15-.23.84-.4-.2-.42.8-.21,2.92.19,3.3-.08-1.4-.13-3.87.09-4.61-.27,2-.27,3.61.07,5.7,0Zm-5,2.31c0-.17.4-.29.72-.19C340.68,11.15,340.24,11.15,339.89,11.18Zm1.82-.37s-.18.06-.18.12c2.34,0,2.59-.09,4.59-.21.76.62-3.51.49-4.57.57C340.77,11.13,340.61,10.89,341.71,10.81Zm1.06-.91c.11-.14.6-.16.72-.3.25.18,1.57,0,1.66.23C344.34,9.66,343.72,10,342.77,9.9Zm7.1,2.54c0,.06.23.05.38.06,0,.09-.55,0-.55.13a9.14,9.14,0,0,0,1.66,0c-.77.28-2.65.21-3.29.37-.29-.12-.15-.32,0-.36-.18-.2-.41,0-.74-.11-.51.08.58.12.38.3a7.86,7.86,0,0,0-2.39.13c-.58-.09,0-.1-1.1-.06-.11-.41,1.17-.09,1.64-.24-.62-.25-2.38.23-2.4-.17,2.3.05,5.17-.41,7.73,0C350.78,12.68,350.56,12.41,349.87,12.44Zm-4.7-2.19c-.64,0,.46-.23-.19-.24.17-.19.62,0,.74.06S345.19,10.14,345.17,10.25Zm.73-.25c1.35-.15,4.44-.07,3.69.23C348.66,10,347.41,10.25,345.9,10Zm3.35,4.79c-.29,0,.16-.11-.19-.12.36-.27,1.56,0,2.21,0C351.06,15,349.61,14.6,349.25,14.79Zm1.84,0H352c-.11.06-.22.11,0,.12,0,.09-.54,0-.54.13C351.15,15,351.05,14.92,351.09,14.78Zm-1-4.8c1.21-.16,3.92,0,6.06-.15-1.26.48-3.38.15-5.32.27C351,9.92,350.45,10,350.13,10Zm6.5,5.19c.42.11,1.56-.1,1.84.17a4.76,4.76,0,0,1,1.28-.12c.11.12.54.19.2.29s-.21-.17-.56-.17-.42.16,0,.18a27.13,27.13,0,0,1-4.41,0,2.91,2.91,0,0,1,1.28-.13c0-.37-.86-.15-1.29-.05-.05-.07-.71-.24-.38-.24,0-.19.91,0,1.47-.13-.51-.17-2.11,0-2.4,0,.13.14.39.3-.35.3.09-.42-.84-.49-1.86-.53.14-.06.19-.14.17-.24,2,.19,6.11-.23,8.82-.11,0,.11-.22.13-.17.24.58,0,.64-.23,1.27-.24v.24c.33,0,.39-.08.74-.07s-.23-.09.17-.18h.92c0,.07.05.1.19.12a2.38,2.38,0,0,1-1.27.3c.14.06.2.14.19.24-.43-.12-1,.12-1.47,0-.25,0-.34.13-.36.24C359.16,15.15,358.28,15.12,356.63,15.17Zm.46-5.82c.16.19-.29.18-.36.3-1-.07-1.29,0-2.39-.05,1.05.29-2.3.21-2.58,0C353.5,9.35,355.88,9.66,357.09,9.35Zm-.75-.24c0-.14.8,0,.92,0C357.12,9.32,356.62,9.18,356.34,9.11Zm1.13.54c-.14-.23.28-.27.9-.25.15.17-.36.12-.35.24,1.47.17,3,0,3.51.41a10.08,10.08,0,0,0-2.75.19,2.86,2.86,0,0,0-.74-.18c.27-.14.44-.09.91-.06C358.79,9.77,358.28,9.66,357.47,9.65Zm5.88-.09c.13-.14,1.13-.07.92.11a2.7,2.7,0,0,1-.73.07C363.55,9.65,363.56,9.57,363.35,9.56Zm5.53,31.35c.44-.25.95.05,1.66.05.09.17-1,0-.91.13C369.14,41.11,369.47,40.86,368.88,40.91Zm5.85-.75a18,18,0,0,0,3.12-.13c.65,0,.38.28,1.12.23.18.11-.54.2,0,.24a16.08,16.08,0,0,1-2.57.19c-.24-.07-.24-.22,0-.3A9,9,0,0,1,374.73,40.16Zm1.92-29.23c0-.13.78,0,1.1-.07C377.76,11,376.89,11,376.65,10.93Zm.68-1.14c.08-.14.91,0,1.29-.07C378.56,10.06,378,9.74,377.33,9.79Zm7,.68c-.54-.1.41-.22.92-.18C385.46,10.58,384.37,10.38,384.35,10.47Zm7,26.37c.59-.09,1.43-.08,1.09-.31,1.37-.07,1.91.66.78.9C392.44,37.27,391.33,37.24,391.31,36.84Zm5.84-20.13c-.09-.19.39-.2.92-.19,0,.11.23.13.19.24A5.06,5.06,0,0,1,397.15,16.71ZM410.22,36.2c-.16-.29.7-.25,1.09-.36.06-.48-.66-.6.14-.9a4.46,4.46,0,0,1,1.29.17c.2.51.11.52-.32,1-.49.06-1.44,0-1.28.25C410.9,36.26,410.46,36.26,410.22,36.2Zm.72-11.88c.07-.14,1-.05,1.1,0a1.57,1.57,0,0,1-.72.13C411.38,24.33,411.17,24.32,410.94,24.32Zm2.74,11.14c.33,0,.39.08.74.06.16.17-.26.16-.17.3C414,35.72,413.62,35.67,413.68,35.46Zm-.2-19.62c-.14-.22,1.39-.15,1.11.06A2.33,2.33,0,0,1,413.48,15.84Zm7.58.92h.36c0,.2.45.29-.35.31C421.17,16.87,420.72,16.88,421.06,16.76Z"/><path class="cls-2" d="M229.24,35.24a14.7,14.7,0,0,0-2.94.08c.15-.28-.47.08-.55-.12.41-.23,2.82,0,3.47-.26-.06-.08-.46,0-.73-.06s1.56,0,1.47.17C229.24,35.06,228.9,35,229.24,35.24Z"/><path class="cls-2" d="M232.45,6.9c.37,0,.23-.17.73-.13a5.48,5.48,0,0,0,2.39-.13c.39,0,.39.09.19.18,2.15-.21,3.76-.07,5.69-.4-.46.23,1.82.14,1.28-.06A42.3,42.3,0,0,0,251.37,6a20.72,20.72,0,0,0-3.31.14c.41-.27-.81,0-.92.06V6c-7.91.08-16.66.25-23.54.2-.75.22-3.28-.06-4,.39a7.74,7.74,0,0,0-2.4,0c.4-.34-1.13,0-.93-.3-.85.14-1.84-.14-2.21.08,1.14,0,1.87-.12,2.22.16a12.76,12.76,0,0,1-3-.16,10.67,10.67,0,0,1-3.12.09c-.08.27-1,0-1.47.13-.07.1.28.15,0,.18-.72.13-1.61-.12-2.21,0,.23,0,.44,0,.38.11-.57.05-.55-.1-1.11,0-.06.2.8.1,1.11.17a7.83,7.83,0,0,1,2.76-.08,2.54,2.54,0,0,1-1.47.07c-.12.17.37.12.38.24.61,0,.62-.2,1.28-.19-.11.16-.52.23-.72.37.67,0,.49-.25,1.09-.25.19.11-.54.2,0,.24.36-.18,1,.07,1.29.11-.15-.35.92,0,1.28-.19-.56.08-1.05-.16-.56-.24.43.2.77.06,1.48.17,0,.06.15.07.19.12-.86,0-.72.33-.18.06l3.13.16a2.27,2.27,0,0,1-.55-.12c1.11,0,.92.22,1.1-.06.77,0,.66.26,1.12.35-.19-.22.82-.06.72-.25-.35,0-1.1.09-.92-.11a13.12,13.12,0,0,0,2.39-.08c0,.12.21.13.19.24-.55-.08-1.34-.08-1.47.13a5.31,5.31,0,0,0,2.2-.25c.47.19,1.15,0,1.1-.07.54.09.24.22,0,.36a6.27,6.27,0,0,1,2.22.1c-.26,0-.21.14-.36.19a2.43,2.43,0,0,1,1.47.05,12.66,12.66,0,0,1,4.23-.15,13.28,13.28,0,0,1,3.11-.26c.25-.27-1.1,0-1.11-.17a3,3,0,0,1,2-.13c.08.14-.84,0-.55.18C235.87,7.36,233.39,7,232.45,6.9Zm-19.31.25V7c.58-.08.45.09.74.11C213.82,7.16,213.41,7.13,213.14,7.15Zm1.48.22A4.07,4.07,0,0,1,217,7.12l0,.24c-.33,0-.78-.17-.93,0-.61-.06.21-.12.18-.19C215.8,7,215.56,7.47,214.62,7.37Zm8.83-.12a4.09,4.09,0,0,1,2.21,0A15.21,15.21,0,0,1,223.45,7.25Zm1.13.42a4.63,4.63,0,0,1,1.65-.14A3,3,0,0,1,224.58,7.67ZM226,7.3a3.73,3.73,0,0,1,1.1-.13C227.3,7.4,226.32,7.39,226,7.3Zm.76.47c-.06-.16.25-.2.73-.18C227.58,7.74,227.27,7.79,226.79,7.77Zm.53-.48c.34-.4,2.38,0,2,.23A6.47,6.47,0,0,0,227.32,7.29ZM229,7A8.4,8.4,0,0,1,230.43,7C230.22,7.23,229.39,7.14,229,7Zm.77.65c-.2-.15.55-.29,0-.36.87,0,1.06.06,2.4.11A5.33,5.33,0,0,1,229.73,7.69Z"/><path class="cls-2" d="M80.63,29.49c.26-.06,1.58-.31,1.65,0A11.67,11.67,0,0,0,80.63,29.49Z"/><path class="cls-2" d="M82.32,11.55a25.5,25.5,0,0,0,2.58-.13C85.42,11.61,82.72,11.62,82.32,11.55Z"/><path class="cls-2" d="M95.66,26.16a2.8,2.8,0,0,1,1.09-.2c0,.16.59.11.57.28A3.93,3.93,0,0,0,95.66,26.16Z"/><path class="cls-2" d="M104.44,22.49c-.64.05-.46-.2-1.11-.16.14-.14,1.13-.08.93.1.22,0,.37-.08.35-.18C105.34,22.31,104.76,22.43,104.44,22.49Z"/><path class="cls-2" d="M124.09,18.54c0-.18.4-.23.71-.31C127.53,18.35,124.6,18.2,124.09,18.54Z"/><path class="cls-2" d="M124.9,16.78c-.27,0,.07-.07,0-.18.62.06,1.27.09,1.85.16C126.35,17,125.36,16.55,124.9,16.78Z"/><path class="cls-2" d="M128,6.23c-.21,0-.15.12-.17.19-1.19,0-2-.36-3.15-.13.09.13,1,0,1.12.1-.47.12-.75,0-1.47.08-.18-.21,0-.15-.21-.36,1.54-.09,1.35,0,3.32-.05-.54.22,1,.08.93.17-.09-.24.68-.21,1.1,0,.52-.07-.27-.15.17-.24.64.12,2.11-.12,1.86.15.21,0,.33,0,.37,0,.44-.06-.38-.25.54-.24-.61.21.44.15.75.22-.95.37-3.37.14-4.59.32A2.79,2.79,0,0,1,128,6.23Z"/><path class="cls-2" d="M124.87,13.06c-.19-.14,1.35.08,2,0A6.92,6.92,0,0,1,124.87,13.06Z"/><path class="cls-2" d="M127.69,17.22c.23-.11,1,.1,1.66,0,.09.16-1,0-.91.13A2.53,2.53,0,0,0,127.69,17.22Z"/><path class="cls-2" d="M143.29,19.57a12.86,12.86,0,0,1,2,0A10.2,10.2,0,0,1,143.29,19.57Z"/><path class="cls-2" d="M151.29,11.24a4.65,4.65,0,0,1,1.65-.14C152.59,11.2,151.8,11.18,151.29,11.24Z"/><path class="cls-2" d="M156.73,9.55c.31-.12,1.27,0,1.27-.26C158.53,9.43,157.09,9.68,156.73,9.55Z"/><path class="cls-2" d="M160.59,6.14c.25-.24-.84-.38-1.48-.22.27-.24,2.09-.18,2.92-.39-.66.09-.71.35-1.09.25s-.1.27.2.24C161.1,6.1,160.59,6,160.59,6.14Z"/><path class="cls-2" d="M167.66,34.74c1.53-.27,4.17.09,5.49-.35.15.15.92.09.94.29-1.83-.14-2.5.21-3.86,0A9.9,9.9,0,0,1,167.66,34.74Z"/><path class="cls-2" d="M167.11,10.75c.17.17.28.06.74.05.68.09-.75,0-.36.18-.53,0-1,0-.93-.17.15,0,.17,0,.18.06a.92.92,0,0,0,.36-.18C167.31,10.69,167.21,10.74,167.11,10.75Z"/><path class="cls-2" d="M172.81,10.63c.35,0,.79,0,.74.17a6.87,6.87,0,0,0-1.46.13c0,.06.23.05.37.06a11,11,0,0,1-4.06-.08c0-.12.37-.16.54-.24C169.16,11,172.1,10.76,172.81,10.63Z"/><path class="cls-2" d="M174.63,6.83a8.3,8.3,0,0,1,1.1-.08c-.09.09-.26.16-.35.25,2.78-.31,7.05.2,9.93-.28,1,.38,2.18-.3,2.77.09-.14-.18-.14-.11,0-.3-1.25.23-3.22.06-3.33-.27.11.33.3-.36.92-.07.25-.13-.48-.22,0-.23a7.43,7.43,0,0,1,.94.29c.43,0,.75-.08,1.09-.13,0,.07,0,.17.2.18-.18-.35.94-.1,1.28-.08-.34-.21-1.39-.17-1.68-.4-.15.2-.34,0-.91.07,0-.07,0-.17-.2-.18s-.84-.13-1.28.07c.38,0,.39.09.19.18a18.64,18.64,0,0,1-3-.15c-.08.33-.76.18-1.47.13,0,.09.08.22-.17.24s-.38-.15-.57-.23c.32,0,1.09-.13.55-.19,0,.17-1.27,0-1.29.14.4,0,.59,0,.57.17-.46-.15-.39.13-1.11.07-.06.16-.07.33-.34.43-.46-.31-1,.12-1.65.13a2.13,2.13,0,0,1-1.14-.53,6,6,0,0,0-.91.07c.37,0,.37.16.56.24a13.33,13.33,0,0,1-2.76,0,1.52,1.52,0,0,1-1.1.19C172.07,6.85,174.17,6.51,174.63,6.83Zm7.18-.2c-.22,0-.16-.11-.2-.18a3.61,3.61,0,0,1,.92-.07C182.83,6.63,181.51,6.38,181.81,6.63Z"/><path class="cls-2" d="M174.81,34.43c-.3-.15.87.11,1.47,0a4.64,4.64,0,0,1-1.64.2C174.87,34.58,175.53,34.49,174.81,34.43Z"/><path class="cls-2" d="M178.16,10.87c-.36,0-.22.17-.73.13a1.35,1.35,0,0,0-.75-.3c0-.06.36,0,.36-.12.32.3,1.3.07,1.5.46C178.31,11,178.16,11,178.16,10.87Z"/><path class="cls-2" d="M178.71,10.86c-.14-.19.37-.09.37,0,.26,0,.52,0,.55-.07.46.06-.22.24-.54.25C179.15,10.92,179,10.85,178.71,10.86Z"/><path class="cls-2" d="M180.55,35.33c.21,0,.1-.06,0-.06.41-.15,1.73,0,2.2-.14l-.39.08c-.23,0-.55.1-.86.14-.64.07-1.28.1-1.32-.08C180.39,35.26,180.51,35.28,180.55,35.33Z"/><path class="cls-2" d="M183.13,35.42c-.24.16,1,.24,1.49.35-.06-.18,1.91-.11,3.29-.15-.65.19-4.13.37-4.59,0-1,0-1.1,0-2,0a37.81,37.81,0,0,1,5.31-.23A22.59,22.59,0,0,1,183.13,35.42Z"/><path class="cls-2" d="M186.08,10.79c-.73-.08,0-.07,0-.24H187c-.36.13.09.12.2.24.58,0,.06-.33.91-.25.11.14-.35.09-.36.19a4.74,4.74,0,0,1,2,0,1.7,1.7,0,0,1-1.1,0c-.15.11-.47.17-.54.3a3,3,0,0,0-.74,0c0-.07.34-.05.55-.07C187.59,10.88,186.27,10.59,186.08,10.79Z"/><path class="cls-2" d="M188.63,35.31a4.63,4.63,0,0,0,.75.17c0,.09-.46.06-.73.07.25-.09.13-.19-.38-.17.44-.08.4-.31,1.09-.31C189.6,35.3,188.86,35.23,188.63,35.31Z"/><path class="cls-2" d="M190.81,34.81c.43-.17,1.05,0,1.47-.07C192.14,35,191.2,34.81,190.81,34.81Z"/><path class="cls-2" d="M190.49,10.63c.41,0,.69,0,.74.11.53-.05.2-.09.17-.24h.74c-.93.19.33.09.38.29C191.74,10.7,190.91,10.91,190.49,10.63Z"/><path class="cls-2" d="M195.09,10.59c-.71-.05-1.17.11-1.48,0,.07-.08.32-.09.36-.18.47.08,1.68.12,1.13.35C194.82,10.75,195.17,10.69,195.09,10.59Z"/><path class="cls-2" d="M197.24,20.35c.09.18-2.24.23-1.28.13C196.53,20.48,196.47,20.29,197.24,20.35Z"/><path class="cls-2" d="M197.25,20.59a7,7,0,0,1,1.84,0C198.76,20.72,198,20.5,197.25,20.59Z"/><path class="cls-2" d="M200.46,11.2c-.15-.09-.59-.08-.57-.23,1.31,0,1.78,0,2.76-.08-.4.14-.15.16-.35.3h-.56c0-.07.34,0,.55-.06A2.91,2.91,0,0,0,200.46,11.2Z"/><path class="cls-2" d="M203.31,9.44c.61-.08,1.23.08,2.21,0A6.51,6.51,0,0,1,203.31,9.44Z"/><path class="cls-2" d="M205.21,7c-.56,0-.23-.21-.92-.12.16-.16.87-.16.9-.36C205.71,6.68,204.31,6.75,205.21,7Z"/><path class="cls-2" d="M205.36,9.91c.37.11,1.16.09,1.67.16V10C207.84,10.16,205.23,10.18,205.36,9.91Z"/><path class="cls-2" d="M208.2,7.78c-.09-.12.12-.16.17-.24.43,0,.35.41,1.12.23.57.06-.4.1-.36.19A2.16,2.16,0,0,0,208.2,7.78Z"/><path class="cls-2" d="M208.68,10.06c.24-.25,1.2,0,1.66,0-.09,0-.18.09-.17.18.72-.15.5.13,1.11.17.2,0,.12-.12.36-.12.58,0,.83,0,.75.23a6.68,6.68,0,0,0-1.84,0V10.4a3,3,0,0,1-.92-.05c.1.15.25.21-.17.3-.07.15.84,0,.56.18l-1.11-.17c.81-.09.34-.21.16-.42.36.11.46,0,.92,0C210.09,10,209.27,10.06,208.68,10.06Z"/><path class="cls-2" d="M209.29,7.53a2.55,2.55,0,0,0,1.11,0c0,.11.14.16.38.18C210.74,7.77,209.31,7.73,209.29,7.53Z"/><path class="cls-2" d="M212.19,10.27a1.09,1.09,0,0,1,1.12.24c.18,0,.18-.14.54-.13C213.46,10.79,212.83,10.31,212.19,10.27Z"/><path class="cls-2" d="M224.38,37.31c.33-.07,1.67,0,2.39,0A12.1,12.1,0,0,1,224.38,37.31Z"/><path class="cls-2" d="M226.43,23c-.35,0-.66,0-.36.06-1,.05-1.15-.11-.2-.3.19,0,.38.26.55.06C226.7,22.8,226.35,22.85,226.43,23Z"/><path class="cls-2" d="M232.68,22.92c0-.07.18,0,.19,0a1.53,1.53,0,0,1,.91-.13A1.41,1.41,0,0,1,232.68,22.92Z"/><path class="cls-2" d="M234.29,37.19a4.52,4.52,0,0,1,1.84,0C235.91,37.29,235,37.12,234.29,37.19Z"/><path class="cls-2" d="M254.71,37.55h-.37c0-.06-.07-.06-.18-.06a9.77,9.77,0,0,1,1.46-.25C255.67,37.45,254.83,37.3,254.71,37.55Z"/><path class="cls-2" d="M261.68,37.28c-.33.15-1.79-.12-.91.12a18.73,18.73,0,0,0-4.42-.09,9.05,9.05,0,0,1,2,.23c-1.25.17-2-.26-2.76,0,.29,0,.13.13,0,.18.49,0,1.08,0,1.11.11-.2.12-1.53-.13-1.65.13,4.62-.1,8.27-.06,12.86-.06-.29-.09-.86-.08-1.11-.18.14,0,.36,0,.37-.06-.15,0-.37,0-.38-.06.68.06,1.72-.08,1.28-.18-.3.2-1.12.06-1.65,0-.46.12.4.32-.35.37-1.18-.21-3.09.19-3.68-.16.64-.17,2.64.19,3.11-.26a12.7,12.7,0,0,1-3.13-.1l-.54.18C261.19,37.36,262,37.35,261.68,37.28Zm-3.11.25c-.06-.19.8-.22,1.1-.12A2.63,2.63,0,0,1,258.57,37.53Z"/><path class="cls-2" d="M255.69,35c0-.13.78,0,1.1-.07-.11.06-.21.11,0,.12C256.7,35.21,256.1,35,255.69,35Z"/><path class="cls-2" d="M267.69,36.11a6.78,6.78,0,0,1,2.39-.13C269.49,36.09,268.41,36,267.69,36.11Z"/><path class="cls-2" d="M269,36.46c-.25,0-.16-.15-.2-.24.49,0,1.62-.23,1.48.12C269.69,36.3,269,36.11,269,36.46Z"/><path class="cls-2" d="M276.05,37.81c0-.07-.05-.11-.19-.12a4.74,4.74,0,0,1,2,.05C277.45,37.87,276.75,37.7,276.05,37.81Z"/><path class="cls-2" d="M276.78,6.6c-.47,0-1-.2-.56-.29C276.21,6.21,276.42,6.5,276.78,6.6Z"/><path class="cls-2" d="M278.91,36.18c-.33,0-.39-.07-.74-.06.41-.22.69-.13,1.47-.19C280.1,36,278.67,36,278.91,36.18Z"/><path class="cls-2" d="M283.89,36.45c.73-.19,2.24,0,3.11-.25C286.47,36.54,284.93,36.4,283.89,36.45Z"/><path class="cls-2" d="M285.93,36.8c-.07.11.15.12.37.12,0,.14-.48.14-.73.07-.06-.13.76-.44.72-.19Z"/><path class="cls-2" d="M286.51,6.2c-.27-.15,1.24.15,1.66,0-.49.17.38.23.75.3-.35.21-.92,0-1.65.07C288.1,6.41,287,6.28,286.51,6.2Z"/><path class="cls-2" d="M288.63.37c0,.13-.65,0-.92.06.07-.29.83-.36,1.64-.42Z"/><path class="cls-2" d="M294.25,37.85c.2-.25.91,0,1.47,0C295.54,38,294.87,37.77,294.25,37.85Z"/><path class="cls-2" d="M311.13,5.79c-.07.09-.23,0-.55,0,.26-.09.58-.13-.19-.12-.14-.1,1.05-.13,1.47-.06C311.83,5.7,310.5,5.68,311.13,5.79Z"/><path class="cls-2" d="M331.74,6.11c-.52,0,1.25-.17,1.46-.3a2.24,2.24,0,0,0,1.29.17c.34.32-1,0-1.84,0,.06.12.5.12.75.18C333.08,6.31,332.59,6,331.74,6.11Z"/><path class="cls-2" d="M337.65,6.69c-.35,0-1.1.08-.92-.12,1.08.06,1.26-.28.71-.42.12-.07.42-.07.36-.19C338.49,6.16,337.73,6.41,337.65,6.69Z"/><path class="cls-2" d="M340.74,6c-.15.18.59.36.21.42-.64,0-.06-.26-.58-.42.32,0,.35,0,.37-.12,1.14.13,1.54-.09,2.94,0a1.46,1.46,0,0,1-.92.06c.41.24-.66.18-1.27.37V6Z"/><path class="cls-2" d="M348.15,3.27c-.29.31.6.21.94.3C348.64,3.77,346.83,3.31,348.15,3.27Z"/><path class="cls-2" d="M356.6,6.77c-.41,0-2.6,0-.56-.12A2.25,2.25,0,0,0,356.6,6.77Z"/><path class="cls-2" d="M358.79,6.52a11.34,11.34,0,0,1-2.2.13c.43-.14-.24-.23-.39-.36a3,3,0,0,1,1.48.17c.28,0-.05-.08.17-.24a2.6,2.6,0,0,0,1.11,0C359.3,6.29,358.23,6.32,358.79,6.52Z"/><path class="cls-2" d="M358.63,7a26,26,0,0,1,5.67-.63c.21,0,.15-.11.17-.18.48.07.59.12.38.3.81,0,.85-.1,1.3,0,.22,0,.37-.08.35-.18,4,.11,7.08-.09,9.74-.23-.56.19.63.1.39.36a1.87,1.87,0,0,1,.54-.06c-.08-.12-.71,0-.56-.24.9.1,1.3,0,1.67.35-.28.18-1-.27-.91.12l-15.08,0c-.5,0-.35.13-.55.18s-.87,0-.92-.11c-.27,0-.58.09-.54.24A7.91,7.91,0,0,0,358.63,7Z"/><path class="cls-2" d="M373.58,12c0-.17.86-.08,1.09-.18a2.36,2.36,0,0,0-.56-.12c1.11-.4,3.05-.1,4.77-.2-.52.35,3.69.45,4.06.1.58-.06.38.15.74.17a7.21,7.21,0,0,1,1.27-.3c-.14.05-.19.13-.17.24.79-.1,1.18.29,1.86.41.2-.17.8-.12,1.28-.07-.79.14.16.22.93.18a12.52,12.52,0,0,1-2.56.37c.06-.08.32-.1.36-.18a8.33,8.33,0,0,0-2.4-.17c-.24-.08-.24-.22,0-.3-.56.2-2.22-.06-2.56.31a8.75,8.75,0,0,0-1.29-.11c.18-.24.56,0,1.1,0a1,1,0,0,0,.36-.19C379.65,11.94,376.19,11.87,373.58,12Z"/><path class="cls-2" d="M375.52,14.18c-.36-.17-1.4-.1-1.67-.3.77,0,1.79.18,2.21.11S375.62,14.12,375.52,14.18Z"/><path class="cls-2" d="M378.4,43.74c.14-.05.19-.13.17-.24a2,2,0,0,0,1.48.18c.16,0,.12.16.37.17-.14.22-.45,0-1.1.07C379.4,43.73,378.92,43.73,378.4,43.74Z"/><path class="cls-2" d="M381,9.23c-1.07.1-1.64,0-2.76.13a.83.83,0,0,1,.55-.12c-.1-.05-.2-.1-.19-.18A7.85,7.85,0,0,0,381.34,9C381.09,9,379.79,9.24,381,9.23Z"/><path class="cls-2" d="M383.55,9.09c-.35-.15.76.06.57.24a3.47,3.47,0,0,0-.74-.06C383.28,9.19,384.09,9.12,383.55,9.09Z"/><path class="cls-2" d="M384.41,7.71s.07-.06.18-.06V7.53c.28.27,2.21,0,2,.41-.39,0-.35-.09-.37-.18C385.46,7.71,384.85,7.74,384.41,7.71Z"/><path class="cls-2" d="M391.19,3.35c.53,0,.57.14,1.11.12a4.33,4.33,0,0,1-1.47.19c0,.1.24.12.2.24a6.16,6.16,0,0,0-1.29,0c.09.08.24.12.56.12-.25.17-.59,0-.91.24-.39,0,0-.26.17-.3a2.79,2.79,0,0,0-.92-.17c.11-.06.41-.07.35-.18A6.31,6.31,0,0,0,391.19,3.35Z"/><path class="cls-2" d="M390,16.08c-.2,0-.1-.06,0-.06-.12-.06-.42-.06-.38-.18.58,0,.81.18,1.3.24S389.88,15.94,390,16.08Z"/><path class="cls-2" d="M391.54,14.63a1.81,1.81,0,0,1,1.09-.24c-.69.3,1.06-.1,1.66,0,.17,0,.48-.27.17-.24a46.91,46.91,0,0,1,4.8.34c.38-.39,1.33.12,1.64-.25.34,0,.13.2.38.24a13.68,13.68,0,0,1,2.58,0c.27,0-.22.48.56.24.31.25-1,.14-1.11-.12a10.21,10.21,0,0,1-2-.1c-.33,0-.42.1-.36.24a6.53,6.53,0,0,0-2,0c.35-.64-2.54,0-3.51-.46A35.88,35.88,0,0,1,391.54,14.63Z"/><path class="cls-2" d="M395.2,10.3a2.36,2.36,0,0,1,1.09-.13c.15-.17-.26-.15-.2-.3a10.87,10.87,0,0,0,2.2-.25c-.45.36,3.78.21,4.08.7a2.41,2.41,0,0,1,.73-.06,4.12,4.12,0,0,0,1.67.29c.9.42,3,.52,3.54.88-.53-.1-1.62.06-1.29.07-3.19.18-8.75-.62-11.21.17.61.09,1.12-.3,2.39-.19a19,19,0,0,1-2.37.61c0,.17,1.2-.08.93.18s-.62,0-1.28,0c.79-.4-1.82-.34-2.41-.28,0-.12.5-.08.36-.25a8.2,8.2,0,0,0,1.65,0c-.82-.41-2.11-.15-3.5-.23,1.36-.06,2.64-.66,4.18-.86.75,0,1.74.06,1.83-.25.44,0,.35.21.93.18s-.07-.32,1.28-.25c.24,0,.33-.13.35-.24-.5-.26-2.4.1-2-.23-.41,0-.26.12-.55.12-.06.15.84,0,.56.18s-.88,0-.74-.18A19.07,19.07,0,0,1,395.2,10.3Z"/><path class="cls-2" d="M393.77,15.1c0-.13.47.08.92,0,.21.19.09.16-.17.3C394.32,15.28,394.6,15.12,393.77,15.1Z"/><path class="cls-2" d="M401.49,14.94c.7,0,1.54,0,2.39.11A8.63,8.63,0,0,1,401.49,14.94Z"/><path class="cls-2" d="M404.49,12.41c-.12.52-2.16,0-3.13-.11A20.79,20.79,0,0,1,404.49,12.41Z"/><path class="cls-2" d="M408.29,26.49c.74,0,.57.25,1.11.29S408.08,26.73,408.29,26.49Z"/><path class="cls-2" d="M424.68,41.11c.75,0,.63.28,1.14.35C425.65,41.52,424.73,41.3,424.68,41.11Z"/><path class="cls-2" d="M427.24,33.3c.12-.15.5.11.93.05a1.85,1.85,0,0,1-.92.19C427.41,33.43,427.86,33.35,427.24,33.3Z"/><path class="cls-2" d="M430.76,41.64h.05v-.46c0-1.27,0-2.63,0-4,0-.94,0-1.91.05-2.88.08-3.18.23-4.4.3-5.1,0,.37-.1.89-.12,1.26s-.07.95-.09,1.39-.05,1.05-.06,1.51l-.05,1.75,0,2.08V41.7S430.78,41.66,430.76,41.64Z"/><path class="cls-2" d="M430.81,37.06c0-.69,0-1.26,0-1.79s0-1,0-1.45l0-1.14c0-.33,0-.67.05-1,.06-1.12.15-2,.21-2.57s.12-.87.16-1.06,0-.21,0-.18l-.07.38-.12.88-.07.66c0,.25,0,.52-.07.79l-.06,1c0,.39,0,.78-.06,1.15,0,1,0,1.81-.07,2.5C430.82,36,430.81,36.64,430.81,37.06Z"/><path class="cls-2" d="M444.21,37.75c.33,0,.39-.07.74-.06,0,.23-1.39.23-1.65.19.84-.15-.13-.28-.21-.48.43-.17,1.09-.31.53-.48a7.07,7.07,0,0,1,1.86.35C444.67,37.23,443.7,37.2,444.21,37.75Z"/><path class="cls-2" d="M464.89,36.26c-1.25-.1-.77.07-.27.19-.12-.26,2-.13,3.52-.5.2.09.76,0,.67.24-.92.23-3.31.23-2.94.62A14.79,14.79,0,0,1,464,37l-1.08,0h-.69a1.34,1.34,0,0,0-.76.29c.14.29.29.36.47.33a1.2,1.2,0,0,0,.29-.09,7.86,7.86,0,0,1,1.31-.15c-.21.23.83.21,1.27.29a3.8,3.8,0,0,1-1.28.28,7,7,0,0,1-.82,0h-.48a5.38,5.38,0,0,1-.71-.19h-.75c.54-.13-.5-.18.17-.32-1.26-.25-3.28-.25-4.06-.71a9.27,9.27,0,0,1-1,.12c0-.15-.06-.23-.24-.29-.72.15-1.67.24-1.26-.13-.36,0-1,0-.81.14-.35-.07-.42-.23-.82-.28-.65-.06-.15.2-.79.14-.19-.29-1.51-.21-1.6-.52a3.74,3.74,0,0,1-2.49-.52c2.43-.55,4.05.35,7.68.21,0,.39,1.14.42,2.35.23.38,0,.5.15.47.33a18.69,18.69,0,0,1,2-.1l.59-.16a2.14,2.14,0,0,0,.45-.17,4,4,0,0,1,.86-.52,1,1,0,0,1,.43-.09l1.07-.07c.76,0,1.59-.1,2.52-.19.43.17.59,0,1.46,0-1.28.35-2,.67-3.08.92C465,35.92,464.87,36.1,464.89,36.26Z"/><path class="cls-2" d="M31.72,27.52c.14-.06.19-.15.17-.25.8,0,1-.15,1.82-.14-.13.14.24.39.39.22.46.06-.77.33.57.22,0,.23-1.17.14-1.07.4A4,4,0,0,0,31.72,27.52Z"/><path class="cls-2" d="M165.55,5.84c.41-.17,1.25-.2,1.64-.38.4,0,.4.15.39.3.22-.07.37-.06.37.06.54-.18,1,0,1.64-.2a2.88,2.88,0,0,0,1.49.28c-1.29.14-2.59-.06-3.31.1a5.49,5.49,0,0,0-1.12-.29,4.91,4.91,0,0,1-1.46.26c.06-.12-.05-.19-.38-.18.1,0,.19-.1.18-.18A3.8,3.8,0,0,1,165.55,5.84Z"/><path class="cls-2" d="M205.9,9.54c.28,0,.26-.19.72-.18-.09.27.8.21,1.49.22.08.25-1.15.08-1.65.14C206.26,9.66,206.39,9.5,205.9,9.54Z"/><path class="cls-2" d="M383.36,5.07c.11.14-.61,0-.53.31-.25-.21-1.35-.12-1.31-.42-1,.11-1.65.31-1.44.79a12,12,0,0,1-5.53-.33c-.63-.74.12-1.28,1.59-1.39,2.19-.17,4.62.66,6.27.33.61.09,2.46.1,3.32.28-.2.19,0,.14,0,.36-.7.06-1.89,0-1.83.25A1.11,1.11,0,0,1,383.36,5.07Z"/></g></g></svg>